<svg width="180" height="180" viewBox="0 0 180 180" fill="none" xmlns="http://www.w3.org/2000/svg">
<circle cx="139.275" cy="69.5" r="1.5" fill="#79AFE0"/>
<circle cx="27.5" cy="109.5" r="2.5" fill="#79AFE0"/>
<circle cx="63.5" cy="136.5" r="5.5" fill="#79AFE0"/>
<circle cx="150.5" cy="115.5" r="4.5" fill="#DEEAF6"/>
<circle cx="135" cy="28" r="7" fill="#DEEAF6"/>
<path fill-rule="evenodd" clip-rule="evenodd" d="M86.6891 38.5502C100.779 38.4925 116.827 33.1183 127.134 42.7246C137.559 52.4401 134.962 68.9259 134.563 83.1699C134.181 96.83 134.126 111.303 124.931 121.411C115.403 131.885 100.786 137.12 86.6891 135.799C73.5847 134.571 63.8291 124.62 55.0001 114.859C46.7574 105.746 40.5185 95.374 39.0863 83.1699C37.4381 69.1253 36.2564 52.7251 46.5736 43.0544C56.7794 33.4882 72.701 38.6075 86.6891 38.5502Z" fill="#DEEAF6"/>
<path d="M71.7751 61.1601V53.4965C71.7751 46.0565 65.7164 39.9988 58.2743 39.9988C50.8332 39.9988 44.7745 46.0565 44.7745 53.4965V61.1601L38.7747 65.4952V53.4965C38.7747 42.729 47.5047 34 58.2743 34C63.6591 34 68.5348 36.1907 72.0617 39.7112C75.5833 43.2381 77.775 48.1128 77.775 53.4965V65.4952L71.7751 61.1601Z" fill="#BFDBF5"/>
<path d="M58.2744 120.987C42.5367 120.987 29.7749 108.227 29.7749 92.4905V83.4917C29.7749 67.7562 42.5367 54.9965 58.2744 54.9965C74.0131 54.9965 86.7749 67.7562 86.7749 83.4917V92.4905C86.7749 108.227 74.0131 120.987 58.2744 120.987Z" fill="#79AFE0"/>
<path d="M38.7746 84.9917C39.6007 84.9917 40.2746 84.3179 40.2746 83.4918C40.2746 73.5682 48.3486 65.4952 58.2743 65.4952C68.201 65.4952 76.275 73.5682 76.275 83.4918C76.275 84.3179 76.9489 84.9917 77.775 84.9917C78.601 84.9917 79.2749 84.3179 79.2749 83.4918C79.2749 71.9161 69.8531 62.4953 58.2743 62.4953C46.6965 62.4953 37.2747 71.9161 37.2747 83.4918C37.2747 84.3179 37.9485 84.9917 38.7746 84.9917Z" fill="#FFC50F"/>
<path d="M77.775 89.4916C75.2904 89.4916 73.275 87.4762 73.275 84.9917V83.9662C73.275 75.8354 67.1345 69.0515 59.2945 68.5298C55.1106 68.2485 51.103 69.6718 48.0327 72.5426C45.0789 75.3022 43.3564 79.1744 43.2808 83.1989C43.2745 83.2345 43.2745 83.2639 43.2745 83.2933V83.4865C43.2745 85.97 41.2592 87.9916 38.7746 87.9916C37.9485 87.9916 37.2747 88.6655 37.2747 89.4916C37.2747 90.3177 37.9485 90.9905 38.7746 90.9905C42.9051 90.9905 46.2682 87.6337 46.2745 83.498V83.4917C46.2745 80.1884 47.6632 76.9953 50.0827 74.7281C52.5378 72.4366 55.7372 71.2946 59.0951 71.5234C65.3648 71.9391 70.2751 77.411 70.2751 83.9662V84.9917C70.2751 89.1284 73.6382 92.4905 77.775 92.4905C78.601 92.4905 79.2749 91.8166 79.2749 90.9905C79.2749 90.1644 78.601 89.4916 77.775 89.4916Z" fill="#FFC50F"/>
<path d="M75.1496 95.1619C70.5154 93.9611 67.275 89.7782 67.275 84.9917V83.9662C67.275 79.0632 63.5183 74.8215 58.8956 74.5171C56.3879 74.3586 53.9558 75.2141 52.1336 76.9187C50.2883 78.6475 49.2743 80.9788 49.2743 83.4917C49.2691 88.2782 46.034 92.4611 41.3997 93.6619C40.5967 93.8677 40.116 94.6875 40.3217 95.4842C40.5264 96.2871 41.3462 96.7794 42.1492 96.5622C48.1081 95.0212 52.269 89.6491 52.2743 83.4917C52.2743 81.8165 52.9544 80.264 54.1847 79.1104C55.4149 77.9558 56.9736 77.3816 58.6961 77.5107C61.7727 77.7154 64.2751 80.6093 64.2751 83.9662V84.9917C64.2751 91.149 68.4412 96.5212 74.4002 98.0621C74.5282 98.0978 74.6521 98.1094 74.7749 98.1094C75.4425 98.1094 76.0523 97.6643 76.2276 96.9841C76.4334 96.1874 75.9526 95.3676 75.1496 95.1619Z" fill="#FFC50F"/>
<path d="M70.8021 100.084C59.9443 96.0121 59.7743 83.9956 59.7743 83.4865C59.769 82.6604 59.1004 81.9928 58.2743 81.9928C57.4545 81.9928 56.7922 82.6488 56.7743 83.4623C56.7743 83.4686 56.7743 83.4749 56.7743 83.4749C56.7743 83.4749 56.7743 83.4749 56.7743 83.4802C56.7743 83.4802 56.7743 83.4865 56.7743 83.4917C56.7743 96.7322 46.3333 99.9137 45.8641 100.048C45.0674 100.271 44.6045 101.097 44.827 101.893C45.0559 102.69 45.8935 103.159 46.6786 102.937C46.7847 102.907 55.14 100.434 58.4443 91.4303C60.085 95.6657 63.3316 100.488 69.7471 102.896C69.9235 102.96 70.0988 102.989 70.2751 102.989C70.8839 102.989 71.4529 102.62 71.6806 102.016C71.9682 101.244 71.5757 100.377 70.8021 100.084Z" fill="#FFC50F"/>
<path d="M66.1385 104.535C61.0759 103.264 59.746 99.6555 59.6988 99.5148C59.493 98.906 58.9188 98.4893 58.2744 98.4893C57.6299 98.4893 57.0557 98.906 56.851 99.5148C55.5673 103.359 50.1594 106.124 50.1006 106.147C49.3627 106.521 49.0635 107.424 49.433 108.162C49.6965 108.684 50.2297 108.988 50.7745 108.988C51.0033 108.988 51.2321 108.936 51.4484 108.83C51.6657 108.718 55.8895 106.575 58.3573 103.065C59.6106 104.647 61.796 106.539 65.4121 107.442C66.2088 107.647 67.0286 107.154 67.228 106.352C67.4327 105.549 66.9404 104.735 66.1385 104.535Z" fill="#FFC50F"/>
<path d="M58.7615 107.57C57.9701 107.301 57.1262 107.717 56.8574 108.502C56.3526 109.973 54.8295 110.552 54.777 110.57C54.0034 110.845 53.5877 111.695 53.8565 112.474C54.0674 113.095 54.6542 113.488 55.2745 113.488C55.433 113.488 55.6031 113.459 55.7616 113.405C55.8781 113.364 58.6965 112.374 59.6926 109.474C59.9624 108.689 59.5467 107.84 58.7615 107.57Z" fill="#FFC50F"/>
<path d="M124.969 83.0699C125.937 82.4121 127.019 82.0279 128.122 81.9012C128.029 81.8961 127.935 81.887 127.84 81.887C126.094 81.887 124.568 82.8104 123.709 84.192C124.08 83.7703 124.498 83.3902 124.969 83.0699Z" fill="#FFCFCC"/>
<path d="M132.134 87.4488C131.766 86.8548 131.257 86.3449 130.669 85.9871C130.08 85.6293 129.418 85.4246 128.735 85.4246C128.633 85.4246 128.532 85.4286 128.43 85.4388C127.82 85.4904 127.119 85.8006 126.52 86.2638C125.92 86.724 125.426 87.3342 125.188 87.9191C124.957 88.4827 124.818 89.2044 124.819 89.925C124.819 90.3721 124.871 90.8191 124.981 91.2276C125.091 91.636 125.257 92.006 125.478 92.3081C125.698 92.6091 126.005 92.8534 126.358 93.0207C126.709 93.1889 127.104 93.2781 127.481 93.2771C127.935 93.2771 128.354 93.1504 128.668 92.9051C128.982 92.6588 129.217 92.2979 129.303 91.7192C129.342 91.4506 129.59 91.2651 129.859 91.3026C130.127 91.3411 130.314 91.5894 130.276 91.858C130.166 92.6527 129.791 93.2822 129.271 93.6815C128.752 94.0829 128.114 94.2593 127.481 94.2593C126.953 94.2593 126.421 94.1377 125.936 93.9076C125.452 93.6775 125.013 93.3359 124.684 92.8858C124.378 92.4672 124.168 91.9857 124.032 91.482C123.897 90.9782 123.836 90.4491 123.836 89.925C123.837 89.0807 123.993 88.2495 124.28 87.5481C124.605 86.7575 125.202 86.0408 125.921 85.4864C126.64 84.934 127.483 84.5397 128.342 84.4606C128.473 84.4484 128.604 84.4424 128.735 84.4424C129.615 84.4424 130.454 84.7079 131.179 85.1489C131.762 85.5026 132.272 85.9729 132.683 86.5183C132.626 85.2604 132.093 84.1251 131.256 83.2949C130.508 82.9898 129.717 82.8337 128.924 82.8337C127.74 82.8337 126.558 83.1774 125.52 83.8818C124.569 84.5305 123.84 85.4681 123.346 86.571C123.202 86.8943 123.082 87.2329 122.978 87.5805V92.8585C123.064 93.1494 123.164 93.4342 123.278 93.7109C123.703 94.7357 124.415 95.6601 125.256 96.317C126.097 96.9758 127.058 97.36 127.976 97.359C128.759 97.3559 129.52 97.0944 130.24 96.4477C130.666 96.0636 131.058 95.4615 131.293 94.907C131.6 94.1833 131.764 93.3116 131.764 92.4226C131.764 91.5732 131.615 90.7086 131.316 89.9413C131.018 89.1719 130.573 88.504 129.992 88.0205C129.589 87.689 129.157 87.5481 128.732 87.5461C128.008 87.5461 127.282 87.9708 126.874 88.734C126.64 89.1719 126.552 89.6473 126.552 90.1653C126.551 90.6569 126.634 91.1799 126.742 91.704C126.797 91.9695 126.624 92.229 126.359 92.2838C126.093 92.3375 125.834 92.1662 125.78 91.9006C125.667 91.3502 125.57 90.7653 125.57 90.1653C125.569 89.5368 125.68 88.8841 126.008 88.2718C126.572 87.2126 127.62 86.5649 128.732 86.5639C129.382 86.5639 130.05 86.7919 130.619 87.2653C131.355 87.8765 131.886 88.6915 132.233 89.5855C132.471 90.1987 132.622 90.8515 132.695 91.5104V88.581C132.538 88.1847 132.355 87.8035 132.134 87.4488Z" fill="#FFCFCC"/>
<path d="M130.9 97.1755C130.018 97.9773 128.989 98.3432 127.977 98.3412C126.784 98.3391 125.628 97.8546 124.651 97.0904C124.004 96.5835 123.434 95.9521 122.978 95.2395V98.7081C124.24 99.7886 125.838 100.403 127.393 100.402C128.3 100.401 129.193 100.195 130.01 99.7562C131.153 99.1429 132.014 98.1445 132.597 96.9191C132.631 96.8451 132.662 96.767 132.695 96.691V93.3288C132.618 94.0181 132.454 94.685 132.197 95.2902C131.91 95.9602 131.467 96.6575 130.9 97.1755Z" fill="#FFCFCC"/>
<path d="M130.475 100.622C129.506 101.142 128.449 101.384 127.393 101.383C125.841 101.382 124.291 100.868 122.978 99.9488V104.732C123.014 104.748 123.047 104.766 123.084 104.781C123.333 104.887 123.449 105.176 123.342 105.425C123.275 105.583 123.135 105.687 122.978 105.715V115.131C122.802 115.026 122.62 114.923 122.438 114.819V119.107L132.652 124.372C132.666 124.38 132.681 124.389 132.695 124.397V104.556C131.332 105.654 129.67 106.352 127.893 106.525C127.623 106.552 127.382 106.354 127.357 106.084C127.33 105.814 127.527 105.573 127.798 105.548C129.658 105.367 131.378 104.541 132.695 103.242V98.6615C132.108 99.4623 131.371 100.14 130.475 100.622Z" fill="#FFCFCC"/>
<path d="M132.272 149.908L132.275 149.738C131.762 150.352 131.203 150.967 130.595 151.584C131.17 151.052 131.729 150.494 132.272 149.908Z" fill="#FFCFCC"/>
<path d="M92 132.535V137.629C92 143.199 94.2381 148.247 97.8638 151.919C101.555 155.673 106.696 158 112.382 158C113.595 158 115.937 157.691 115.937 157.691C119.869 157.354 122.981 156.456 125.602 155.113C113.97 150.875 106.372 138.871 101.532 126.956C100.888 128.904 99.0558 130.311 96.8907 130.311C94.4013 130.311 92.3517 128.451 92.0446 126.047V131.256C92.0203 131.677 92 132.105 92 132.535Z" fill="#FFD1D0"/>
<path d="M96.8907 130.311C99.0558 130.311 100.888 128.904 101.532 126.956C101.691 126.473 101.78 125.959 101.78 125.423V107.73C101.78 105.031 99.591 102.843 96.8907 102.843H96.8897C94.1894 102.843 92 105.031 92 107.73V125.423C92 125.635 92.0182 125.842 92.0446 126.046C92.3517 128.451 94.4013 130.311 96.8907 130.311Z" fill="#FFC4BE"/>
<path d="M102.416 112.208V125.423C102.416 128.122 104.605 130.311 107.306 130.311C110.007 130.311 112.196 128.122 112.196 125.423V107.73C112.196 106.043 111.341 104.556 110.04 103.678C110.035 103.675 110.03 103.672 110.026 103.669C109.901 103.585 109.771 103.506 109.637 103.433C109.611 103.418 109.583 103.407 109.557 103.394C109.443 103.335 109.328 103.276 109.209 103.227C109.182 103.215 109.153 103.206 109.124 103.195C109.005 103.148 108.884 103.101 108.76 103.063C108.646 103.027 108.527 103 108.408 102.972C108.369 102.963 108.332 102.95 108.292 102.942C108.203 102.924 108.111 102.914 108.019 102.9C107.786 102.867 107.549 102.843 107.306 102.843C105.45 102.843 103.834 103.878 103.006 105.401C102.63 106.093 102.416 106.887 102.416 107.73V112.208Z" fill="#FFC4BE"/>
<path d="M115.076 110.293H118.856V111.275H114.094V106.586H115.076V110.293ZM112.658 112.206V125.423C112.658 128.122 114.848 130.311 117.548 130.311C118.461 130.311 119.312 130.056 120.043 129.622L116.034 127.555C113.471 126.233 112.464 123.085 113.786 120.521C115.109 117.959 118.259 116.952 120.822 118.274L122.438 119.107V107.73C122.438 107.055 122.301 106.413 122.054 105.828C122.029 105.768 121.997 105.712 121.97 105.653C121.93 105.569 121.893 105.483 121.848 105.401C121.814 105.337 121.773 105.277 121.736 105.215C120.687 104.644 119.768 103.926 118.979 103.098C118.962 103.08 118.946 103.062 118.93 103.043C118.799 103.006 118.669 102.969 118.534 102.942C118.506 102.936 118.477 102.935 118.45 102.929C118.157 102.874 117.857 102.843 117.548 102.843C115.354 102.843 113.497 104.287 112.878 106.277C112.735 106.736 112.658 107.223 112.658 107.73V112.206Z" fill="#FFC4BE"/>
<path d="M127.577 134.336C127.985 134.07 128.325 133.873 128.563 133.742C128.631 133.704 128.688 133.674 128.739 133.647C128.775 133.627 128.809 133.609 128.837 133.596C128.9 133.564 128.932 133.548 128.932 133.548L128.827 133.327C128.823 133.328 128.444 133.511 127.846 133.877C126.995 134.398 125.701 135.294 124.386 136.6C122.147 138.825 119.858 142.241 119.684 146.974L119.93 146.983C119.932 146.912 119.939 146.845 119.943 146.775C120.173 142.229 122.382 138.939 124.559 136.775C125.664 135.676 126.759 134.869 127.577 134.336Z" fill="#FFC4BE"/>
<path d="M136.834 74.9822H140.614V78.689H141.596V74H136.834V74.9822Z" fill="#005EB8"/>
<path d="M114.094 78.689H115.076V74.9822H118.856V74H114.094V78.689Z" fill="#005EB8"/>
<path d="M140.614 110.293H136.834V111.275H141.597V106.586H140.614V110.293Z" fill="#005EB8"/>
<path d="M114.094 111.275H118.856V110.293H115.076V106.586H114.094V111.275Z" fill="#005EB8"/>
<path d="M118.979 103.098C119.768 103.926 120.687 104.644 121.736 105.216C122.046 105.385 122.365 105.542 122.699 105.684C122.79 105.723 122.887 105.732 122.978 105.715C123.135 105.687 123.275 105.582 123.342 105.425C123.449 105.176 123.333 104.887 123.084 104.781C123.047 104.765 123.014 104.748 122.978 104.732C121.69 104.166 120.603 103.377 119.69 102.42C118.282 100.946 117.288 99.072 116.647 97.0427C116.006 95.0134 115.72 92.8311 115.72 90.7602C115.72 90.4896 115.5 90.2697 115.228 90.2697C114.958 90.2697 114.738 90.4896 114.738 90.7602C114.739 93.64 115.263 96.7264 116.517 99.4247C117.134 100.752 117.93 101.983 118.93 103.043C118.946 103.062 118.962 103.08 118.979 103.098Z" fill="#005EB8"/>
<path d="M127.357 106.084C127.382 106.354 127.623 106.551 127.893 106.525C129.67 106.352 131.331 105.654 132.695 104.556C133.214 104.138 133.691 103.664 134.114 103.136C134.283 102.924 134.249 102.615 134.037 102.445C133.824 102.276 133.515 102.31 133.346 102.522C133.143 102.777 132.925 103.016 132.695 103.242C131.378 104.54 129.658 105.367 127.798 105.548C127.527 105.573 127.33 105.814 127.357 106.084Z" fill="#005EB8"/>
<path d="M124.65 97.0903C125.628 97.8546 126.784 98.3391 127.976 98.3401C128.989 98.3442 130.018 97.9772 130.899 97.1755C131.467 96.6575 131.909 95.9611 132.196 95.2911C132.453 94.685 132.618 94.019 132.695 93.3288C132.728 93.0297 132.747 92.7277 132.747 92.4226C132.747 92.1195 132.728 91.8144 132.695 91.5103C132.622 90.8515 132.471 90.1987 132.233 89.5854C131.885 88.6904 131.355 87.8765 130.619 87.2653C130.05 86.7919 129.382 86.5628 128.73 86.5649C127.62 86.5649 126.571 87.2115 126.008 88.2708C125.679 88.884 125.569 89.5368 125.57 90.1642C125.57 90.7653 125.667 91.3502 125.78 91.9006C125.834 92.1661 126.093 92.3374 126.359 92.2837C126.625 92.229 126.796 91.9695 126.742 91.7039C126.635 91.1799 126.551 90.6568 126.552 90.1642C126.552 89.6473 126.64 89.1719 126.874 88.733C127.282 87.9707 128.008 87.546 128.73 87.546C129.157 87.5481 129.589 87.689 129.991 88.0204C130.573 88.5029 131.018 89.1719 131.317 89.9412C131.615 90.7085 131.764 91.5732 131.764 92.4226C131.764 93.3115 131.601 94.1822 131.293 94.906C131.059 95.4614 130.666 96.0645 130.24 96.4477C129.521 97.0944 128.759 97.3559 127.976 97.3589C127.058 97.3599 126.097 96.9758 125.256 96.3169C124.414 95.6601 123.702 94.7357 123.278 93.7109C123.164 93.4342 123.063 93.1493 122.978 92.8574C122.728 92.009 122.602 91.1079 122.602 90.2098C122.602 89.3118 122.731 88.4178 122.978 87.5805C123.082 87.2328 123.202 86.8943 123.346 86.5709C123.84 85.4681 124.569 84.5295 125.521 83.8828C126.558 83.1773 127.741 82.8337 128.924 82.8337C129.717 82.8337 130.508 82.9898 131.255 83.2949C132.069 83.6274 132.833 84.1372 133.482 84.8245C134.52 85.9212 135.236 87.3474 135.698 88.9175C136.16 90.4866 136.368 92.1945 136.406 93.8305C136.41 93.9988 136.412 94.168 136.412 94.3363C136.412 96.2267 136.171 98.1212 135.676 99.9183C135.604 100.179 135.758 100.449 136.019 100.521C136.281 100.593 136.552 100.44 136.624 100.179C137.145 98.2904 137.394 96.3098 137.394 94.3363C137.394 94.1599 137.392 93.9836 137.388 93.8082C137.349 92.1043 137.134 90.3173 136.641 88.6397C136.147 86.9642 135.372 85.3931 134.196 84.1504C132.766 82.636 130.847 81.8515 128.924 81.8515C128.656 81.8515 128.39 81.8708 128.122 81.9012C127.019 82.0279 125.936 82.412 124.969 83.0709C124.498 83.3902 124.08 83.7713 123.709 84.193C123.194 84.7788 122.772 85.4478 122.449 86.1706C121.895 87.4133 121.62 88.809 121.62 90.2098C121.62 91.5377 121.866 92.8716 122.371 94.088C122.538 94.4894 122.744 94.8745 122.978 95.2394C123.434 95.952 124.004 96.5845 124.65 97.0903Z" fill="#005EB8"/>
<path d="M134.211 78.9333C134.087 79.1735 134.179 79.4705 134.418 79.5962C135.89 80.3676 137.087 81.6154 137.929 83.0831C138.771 84.5498 139.253 86.2334 139.307 87.8471C139.316 88.1178 139.543 88.3306 139.815 88.3205C140.086 88.3114 140.298 88.0843 140.289 87.8137C140.228 86.0297 139.702 84.2011 138.782 82.5945C137.86 80.9889 136.539 79.6003 134.875 78.7275C134.635 78.6008 134.338 78.6941 134.211 78.9333Z" fill="#005EB8"/>
<path d="M122.593 79.1898C122.377 79.354 122.336 79.6621 122.5 79.878C122.664 80.0929 122.973 80.1345 123.189 79.9703C124.738 78.7874 126.742 78.1782 128.713 78.1082C128.984 78.0981 129.196 77.8711 129.186 77.5994C129.176 77.3288 128.949 77.1169 128.677 77.1271C126.533 77.2041 124.339 77.8589 122.593 79.1898Z" fill="#005EB8"/>
<path d="M130.475 100.622C131.371 100.14 132.108 99.4613 132.695 98.6615C132.998 98.25 133.262 97.807 133.484 97.3387C134.137 95.9602 134.453 94.3749 134.453 92.7784C134.453 92.1733 134.407 91.5661 134.318 90.9671C134.108 89.5987 133.739 88.1725 132.969 86.9308C132.881 86.7889 132.785 86.6511 132.684 86.5183C132.272 85.972 131.762 85.5026 131.179 85.1479C130.455 84.707 129.616 84.4424 128.735 84.4424C128.604 84.4424 128.473 84.4475 128.342 84.4596C127.484 84.5397 126.64 84.934 125.921 85.4854C125.203 86.0409 124.605 86.7575 124.28 87.5471C123.993 88.2486 123.837 89.0797 123.837 89.9241C123.837 90.4481 123.897 90.9772 124.032 91.482C124.168 91.9858 124.379 92.4662 124.684 92.8859C125.012 93.3349 125.451 93.6765 125.936 93.9076C126.42 94.1377 126.953 94.2593 127.481 94.2593C128.114 94.2593 128.752 94.083 129.271 93.6806C129.791 93.2812 130.166 92.6527 130.276 91.8581C130.315 91.5895 130.128 91.3411 129.86 91.3026C129.59 91.2651 129.343 91.4506 129.304 91.7192C129.218 92.297 128.983 92.6578 128.669 92.9051C128.353 93.1504 127.935 93.2771 127.481 93.2771C127.105 93.2771 126.709 93.1879 126.358 93.0207C126.006 92.8534 125.698 92.6092 125.479 92.3071C125.258 92.0061 125.092 91.6361 124.982 91.2266C124.872 90.8181 124.819 90.3711 124.819 89.9241C124.818 89.2044 124.958 88.4817 125.189 87.9191C125.426 87.3343 125.92 86.7241 126.521 86.2639C127.119 85.7996 127.82 85.4905 128.429 85.4378C128.532 85.4287 128.633 85.4246 128.735 85.4246C129.419 85.4246 130.08 85.6293 130.668 85.9872C131.256 86.344 131.766 86.8548 132.134 87.4488C132.355 87.8036 132.538 88.1847 132.695 88.581C133.012 89.3808 133.214 90.2474 133.345 91.1151C133.43 91.6634 133.471 92.222 133.471 92.7784C133.471 94.1559 133.209 95.5162 132.695 96.691C132.662 96.767 132.631 96.8441 132.596 96.9181C132.014 98.1446 131.153 99.143 130.011 99.7562C129.193 100.195 128.3 100.401 127.392 100.401C125.838 100.403 124.24 99.7887 122.978 98.7081C122.8 98.5551 122.627 98.3929 122.464 98.2206C121.501 97.2181 120.814 95.945 120.353 94.535C119.894 93.1251 119.665 91.5793 119.615 90.0528C119.608 89.8278 119.605 89.6028 119.605 89.3787C119.604 87.1488 119.962 84.9046 120.663 82.8429C120.75 82.5864 120.613 82.3077 120.357 82.2195C120.099 82.1323 119.821 82.2702 119.733 82.5266C118.995 84.6988 118.622 87.0444 118.622 89.3787C118.622 89.6139 118.626 89.8491 118.633 90.0842C118.685 91.6878 118.924 93.3197 119.419 94.8391C119.915 96.3575 120.667 97.7655 121.755 98.8997C122.13 99.292 122.541 99.6427 122.978 99.9488C124.291 100.867 125.841 101.382 127.392 101.383C128.449 101.383 129.506 101.142 130.475 100.622Z" fill="#005EB8"/>
<path d="M92 107.73V112.201C92 112.206 92 112.212 92 112.216V107.73C92 105.031 94.1894 102.843 96.8897 102.843C94.1894 102.843 92 105.031 92 107.73Z" fill="#FFE2E1"/>
<path d="M110.041 103.678C110.447 103.952 110.81 104.286 111.117 104.667C110.81 104.286 110.447 103.952 110.041 103.678Z" fill="#FFE2E1"/>
<path d="M112.196 107.73V112.209C112.196 112.207 112.196 112.205 112.196 112.202V107.73C112.196 106.571 111.792 105.506 111.117 104.667C111.792 105.504 112.196 106.571 112.196 107.73Z" fill="#FFE2E1"/>
<path d="M102.416 107.825V112.201C102.416 112.204 102.416 112.206 102.416 112.208V107.73C102.416 106.887 102.63 106.093 103.006 105.401C102.63 106.093 102.416 106.887 102.416 107.73V107.825Z" fill="#FFE2E1"/>
<path d="M122.438 112.207C122.438 112.205 122.438 112.204 122.438 112.201V107.73C122.438 107.055 122.301 106.413 122.054 105.828C122.301 106.413 122.438 107.055 122.438 107.73V112.207Z" fill="#FFE2E1"/>
<path d="M117.548 102.843C117.856 102.843 118.157 102.874 118.449 102.929C118.157 102.874 117.856 102.843 117.548 102.843Z" fill="#FFE2E1"/>
<path d="M112.658 112.172V112.201C112.658 112.203 112.658 112.204 112.658 112.206V107.73C112.658 107.224 112.735 106.736 112.878 106.277C112.735 106.736 112.658 107.225 112.658 107.73V112.172Z" fill="#FFE2E1"/>
<path d="M119.93 146.983L119.684 146.974C119.858 142.241 122.147 138.825 124.386 136.6C125.701 135.294 126.995 134.398 127.846 133.877C128.444 133.511 128.823 133.328 128.827 133.327L128.932 133.548C128.932 133.548 128.9 133.564 128.837 133.596C128.81 133.609 128.775 133.627 128.739 133.647C128.688 133.674 128.631 133.704 128.563 133.742C128.325 133.873 127.986 134.07 127.577 134.336C126.759 134.869 125.664 135.676 124.559 136.775C122.382 138.939 120.174 142.229 119.943 146.775C119.939 146.845 119.932 146.912 119.93 146.983ZM135.263 127.533C135.044 126.796 134.664 126.109 134.141 125.528C133.98 125.28 133.883 125.147 133.883 125.147L133.871 125.244C133.528 124.915 133.135 124.628 132.695 124.397C132.681 124.389 132.666 124.38 132.652 124.372L122.438 119.107L120.822 118.274C118.259 116.952 115.108 117.959 113.786 120.521C112.464 123.085 113.47 126.233 116.034 127.555L120.043 129.622C119.312 130.056 118.461 130.311 117.548 130.311C114.848 130.311 112.658 128.122 112.658 125.423V112.206C112.658 112.204 112.658 112.203 112.658 112.201V112.172C112.567 112.169 112.472 112.165 112.382 112.165C112.319 112.165 112.258 112.167 112.196 112.168V112.201C112.196 112.204 112.196 112.206 112.196 112.209V125.423C112.196 128.122 110.007 130.311 107.306 130.311C104.605 130.311 102.416 128.122 102.416 125.423V112.209C102.416 112.206 102.416 112.204 102.416 112.201V107.825H102.405V114.772C102.195 114.892 101.983 115.011 101.78 115.134V125.423C101.78 125.959 101.691 126.473 101.532 126.956C106.372 138.871 113.97 150.875 125.601 155.113C127.474 154.156 129.092 152.967 130.58 151.596L130.579 151.598C130.584 151.593 130.59 151.589 130.595 151.584C131.203 150.967 131.762 150.352 132.275 149.738C139.955 140.543 137.265 131.652 135.263 127.533Z" fill="#FFE3E2"/>
<path d="M86.6747 60H93.1747C93.2603 60 93.3449 59.992 93.4286 59.975C93.5123 59.9586 93.5937 59.9337 93.6722 59.9012C93.7512 59.8683 93.8259 59.8283 93.8969 59.7808C93.9679 59.7338 94.0338 59.6797 94.0939 59.6196C94.1546 59.5589 94.2082 59.4936 94.2557 59.4226C94.3032 59.3516 94.3432 59.2763 94.3761 59.1978C94.4085 59.1188 94.4334 59.0375 94.4499 58.9538C94.4663 58.8701 94.4748 58.7854 94.4748 58.7003C94.4748 58.6148 94.4663 58.5301 94.4499 58.4464C94.4334 58.3627 94.4085 58.2814 94.3761 58.2029C94.3432 58.1239 94.3032 58.0491 94.2557 57.9781C94.2082 57.9071 94.1546 57.8413 94.0939 57.7811C94.0338 57.7204 93.9679 57.6668 93.8969 57.6193C93.8259 57.5719 93.7512 57.5319 93.6722 57.499C93.5937 57.4665 93.5123 57.4416 93.4286 57.4252C93.3449 57.4087 93.2603 57.4002 93.1747 57.4002H86.6747C86.5896 57.4002 86.505 57.3918 86.4213 57.3753C86.3376 57.3584 86.2562 57.3339 86.1772 57.301C86.0987 57.2686 86.0235 57.2286 85.9525 57.1811C85.8815 57.1336 85.8161 57.0796 85.7555 57.0194C85.6953 56.9592 85.6412 56.8934 85.5942 56.8224C85.5467 56.7514 85.5067 56.6766 85.4738 56.5976C85.4414 56.5186 85.4165 56.4373 85.4 56.3536C85.3831 56.2699 85.3751 56.1857 85.3751 56.1001V49.6001C85.3751 49.5146 85.3666 49.4304 85.3497 49.3467C85.3332 49.263 85.3088 49.1817 85.2759 49.1027C85.2434 49.0237 85.2035 48.9489 85.156 48.8779C85.1085 48.8069 85.0544 48.7411 84.9942 48.6809C84.9336 48.6207 84.8682 48.5667 84.7972 48.5192C84.7262 48.4717 84.6515 48.4317 84.5725 48.3993C84.4935 48.3663 84.4121 48.3419 84.3284 48.325C84.2447 48.3085 84.1601 48.3 84.075 48.3C83.9894 48.3 83.9048 48.3085 83.8211 48.325C83.7374 48.3419 83.6561 48.3663 83.5775 48.3993C83.4985 48.4317 83.4238 48.4717 83.3528 48.5192C83.2818 48.5667 83.2159 48.6207 83.1558 48.6809C83.0951 48.7411 83.0415 48.8069 82.994 48.8779C82.9465 48.9489 82.9066 49.0237 82.8736 49.1027C82.8412 49.1817 82.8167 49.263 82.7998 49.3467C82.7834 49.4304 82.7749 49.5146 82.7749 49.6001V56.1001C82.7749 56.228 82.781 56.3555 82.7937 56.4824C82.8064 56.6094 82.8247 56.7358 82.8497 56.8609C82.8746 56.9865 82.9056 57.1101 82.9428 57.2324C82.9799 57.3546 83.0227 57.4745 83.0716 57.5925C83.1205 57.7106 83.175 57.8258 83.2352 57.9386C83.2954 58.0515 83.3612 58.1605 83.4322 58.2668C83.5032 58.3731 83.5789 58.4756 83.6603 58.5743C83.7412 58.6731 83.8267 58.7676 83.917 58.8578C84.0073 58.9481 84.1018 59.0337 84.2005 59.115C84.2993 59.1959 84.4018 59.2721 84.508 59.3431C84.6143 59.4136 84.7239 59.4794 84.8362 59.5396C84.9491 59.5998 85.0643 59.6544 85.1823 59.7033C85.3003 59.7522 85.4207 59.7949 85.543 59.8321C85.6652 59.8692 85.7889 59.9003 85.9139 59.9252C86.0395 59.9501 86.1655 59.9689 86.2924 59.9811C86.4199 59.9938 86.5473 60 86.6747 60Z" fill="#005EB8"/>
<path d="M120.475 48.3C120.39 48.3 120.305 48.3085 120.221 48.325C120.138 48.3419 120.056 48.3663 119.977 48.3993C119.898 48.4317 119.824 48.4717 119.753 48.5192C119.682 48.5667 119.616 48.6207 119.556 48.6809C119.495 48.7411 119.441 48.8069 119.394 48.8779C119.346 48.9489 119.306 49.0237 119.274 49.1027C119.241 49.1817 119.217 49.263 119.2 49.3467C119.183 49.4304 119.175 49.5146 119.175 49.6001V56.1001C119.175 56.1857 119.167 56.2699 119.15 56.3536C119.133 56.4373 119.108 56.5186 119.076 56.5976C119.043 56.6766 119.003 56.7514 118.956 56.8224C118.909 56.8934 118.854 56.9592 118.794 57.0194C118.734 57.0796 118.668 57.1336 118.597 57.1811C118.526 57.2286 118.451 57.2686 118.373 57.301C118.294 57.3339 118.212 57.3584 118.128 57.3753C118.045 57.3918 117.96 57.4002 117.875 57.4002H111.375C111.289 57.4002 111.205 57.4087 111.121 57.4252C111.037 57.4416 110.956 57.4665 110.878 57.499C110.799 57.5319 110.723 57.5719 110.653 57.6193C110.582 57.6668 110.516 57.7204 110.456 57.7811C110.395 57.8413 110.342 57.9071 110.294 57.9781C110.247 58.0491 110.207 58.1239 110.174 58.2029C110.141 58.2814 110.116 58.3627 110.1 58.4464C110.083 58.5301 110.075 58.6148 110.075 58.7003C110.075 58.7854 110.083 58.8701 110.1 58.9538C110.116 59.0375 110.141 59.1188 110.174 59.1978C110.207 59.2763 110.247 59.3516 110.294 59.4226C110.342 59.4936 110.395 59.5589 110.456 59.6196C110.516 59.6797 110.582 59.7338 110.653 59.7808C110.723 59.8283 110.799 59.8683 110.878 59.9012C110.956 59.9337 111.037 59.9586 111.121 59.975C111.205 59.992 111.289 60 111.375 60H117.875C118.002 60 118.13 59.9938 118.257 59.9811C118.384 59.9689 118.51 59.9501 118.636 59.9252C118.761 59.9003 118.885 59.8692 119.007 59.8321C119.129 59.7949 119.249 59.7522 119.367 59.7033C119.485 59.6544 119.601 59.5998 119.714 59.5396C119.826 59.4794 119.935 59.4136 120.042 59.3431C120.148 59.2721 120.25 59.1959 120.349 59.115C120.447 59.0337 120.542 58.9481 120.633 58.8578C120.723 58.7676 120.809 58.6731 120.889 58.5743C120.971 58.4756 121.047 58.3731 121.118 58.2668C121.189 58.1605 121.254 58.0515 121.315 57.9386C121.375 57.8258 121.429 57.7106 121.478 57.5925C121.527 57.4745 121.57 57.3546 121.607 57.2324C121.644 57.1101 121.675 56.9865 121.7 56.8609C121.725 56.7358 121.743 56.6094 121.756 56.4824C121.769 56.3555 121.775 56.228 121.775 56.1001V49.6001C121.775 49.5146 121.766 49.4304 121.75 49.3467C121.733 49.263 121.709 49.1817 121.676 49.1027C121.643 49.0237 121.603 48.9489 121.556 48.8779C121.508 48.8069 121.455 48.7411 121.394 48.6809C121.334 48.6207 121.268 48.5667 121.197 48.5192C121.126 48.4717 121.051 48.4317 120.972 48.3993C120.894 48.3663 120.812 48.3419 120.729 48.325C120.645 48.3085 120.56 48.3 120.475 48.3Z" fill="#005EB8"/>
<path d="M117.875 21H111.375C111.289 21 111.205 21.0085 111.121 21.0254C111.037 21.0418 110.956 21.0663 110.878 21.0992C110.799 21.1317 110.723 21.1721 110.653 21.2191C110.582 21.2666 110.516 21.3207 110.456 21.3809C110.395 21.4415 110.342 21.5069 110.294 21.5779C110.247 21.6489 110.207 21.7236 110.174 21.8026C110.141 21.8816 110.116 21.963 110.1 22.0467C110.083 22.1304 110.075 22.215 110.075 22.3001C110.075 22.3857 110.083 22.4703 110.1 22.554C110.116 22.6377 110.141 22.719 110.174 22.7976C110.207 22.8766 110.247 22.9513 110.294 23.0223C110.342 23.0933 110.395 23.1591 110.456 23.2193C110.516 23.28 110.582 23.3336 110.653 23.3811C110.723 23.4286 110.799 23.4685 110.878 23.5014C110.956 23.5339 111.037 23.5583 111.121 23.5753C111.205 23.5917 111.289 23.6002 111.375 23.6002H117.875C117.96 23.6002 118.045 23.6087 118.128 23.6251C118.212 23.642 118.294 23.6665 118.373 23.6989C118.451 23.7318 118.526 23.7718 118.597 23.8193C118.668 23.8668 118.734 23.9204 118.794 23.981C118.854 24.0412 118.909 24.1071 118.956 24.1781C119.003 24.2491 119.043 24.3238 119.076 24.4028C119.108 24.4813 119.133 24.5627 119.15 24.6464C119.167 24.7301 119.175 24.8147 119.175 24.9003V31.4003C119.175 31.4854 119.183 31.57 119.2 31.6537C119.217 31.7374 119.241 31.8188 119.274 31.8977C119.306 31.9767 119.346 32.0515 119.394 32.1225C119.441 32.1935 119.495 32.2589 119.556 32.3195C119.616 32.3797 119.682 32.4338 119.753 32.4813C119.824 32.5288 119.898 32.5687 119.977 32.6012C120.056 32.6341 120.138 32.6585 120.221 32.675C120.305 32.6919 120.39 32.7004 120.475 32.7004C120.56 32.7004 120.645 32.6919 120.729 32.675C120.812 32.6585 120.894 32.6341 120.972 32.6012C121.051 32.5687 121.126 32.5288 121.197 32.4813C121.268 32.4338 121.334 32.3797 121.394 32.3195C121.455 32.2589 121.508 32.1935 121.556 32.1225C121.603 32.0515 121.643 31.9767 121.676 31.8977C121.709 31.8188 121.733 31.7374 121.75 31.6537C121.766 31.57 121.775 31.4854 121.775 31.4003V24.9003C121.775 24.7724 121.769 24.645 121.756 24.518C121.743 24.3906 121.725 24.2646 121.7 24.1395C121.675 24.014 121.644 23.8903 121.607 23.768C121.57 23.6458 121.527 23.5259 121.478 23.4079C121.429 23.2899 121.375 23.1742 121.315 23.0618C121.254 22.949 121.189 22.8399 121.118 22.7336C121.047 22.6274 120.971 22.5248 120.889 22.4261C120.809 22.3274 120.723 22.2329 120.633 22.1426C120.542 22.0523 120.447 21.9663 120.349 21.8854C120.25 21.8045 120.148 21.7283 120.042 21.6573C119.935 21.5863 119.826 21.521 119.714 21.4608C119.601 21.4006 119.485 21.3461 119.367 21.2972C119.249 21.2483 119.129 21.205 119.007 21.1683C118.885 21.1312 118.761 21.1002 118.636 21.0752C118.51 21.0503 118.384 21.0315 118.257 21.0188C118.13 21.0066 118.002 21 117.875 21Z" fill="#005EB8"/>
<path d="M84.075 32.7004C84.1601 32.7004 84.2447 32.6919 84.3284 32.675C84.4121 32.6585 84.4935 32.6341 84.5725 32.6012C84.6515 32.5687 84.7262 32.5288 84.7972 32.4813C84.8682 32.4338 84.9336 32.3797 84.9942 32.3195C85.0544 32.2589 85.1085 32.1935 85.156 32.1225C85.2035 32.0515 85.2434 31.9767 85.2759 31.8977C85.3088 31.8188 85.3332 31.7374 85.3497 31.6537C85.3666 31.57 85.3751 31.4854 85.3751 31.4003V24.9003C85.3751 24.8147 85.3831 24.7301 85.4 24.6464C85.4165 24.5627 85.4414 24.4813 85.4738 24.4028C85.5067 24.3238 85.5467 24.2491 85.5942 24.1781C85.6412 24.1071 85.6953 24.0412 85.7555 23.981C85.8161 23.9204 85.8815 23.8668 85.9525 23.8193C86.0235 23.7718 86.0987 23.7318 86.1772 23.6989C86.2562 23.6665 86.3376 23.642 86.4213 23.6251C86.505 23.6087 86.5896 23.6002 86.6747 23.6002H93.1747C93.2603 23.6002 93.3449 23.5917 93.4286 23.5753C93.5123 23.5583 93.5937 23.5339 93.6722 23.5014C93.7512 23.4685 93.8259 23.4286 93.8969 23.3811C93.9679 23.3336 94.0338 23.28 94.0939 23.2193C94.1546 23.1591 94.2082 23.0933 94.2557 23.0223C94.3032 22.9513 94.3432 22.8766 94.3761 22.7976C94.4085 22.719 94.4334 22.6377 94.4499 22.554C94.4663 22.4703 94.4748 22.3857 94.4748 22.3001C94.4748 22.215 94.4663 22.1304 94.4499 22.0467C94.4334 21.963 94.4085 21.8816 94.3761 21.8026C94.3432 21.7236 94.3032 21.6489 94.2557 21.5779C94.2082 21.5069 94.1546 21.4415 94.0939 21.3809C94.0338 21.3207 93.9679 21.2666 93.8969 21.2191C93.8259 21.1721 93.7512 21.1317 93.6722 21.0992C93.5937 21.0663 93.5123 21.0418 93.4286 21.0254C93.3449 21.0085 93.2603 21 93.1747 21H86.6747C86.5473 21 86.4199 21.0066 86.2924 21.0188C86.1655 21.0315 86.0395 21.0503 85.9139 21.0752C85.7889 21.1002 85.6652 21.1312 85.543 21.1683C85.4207 21.205 85.3003 21.2483 85.1823 21.2972C85.0643 21.3461 84.9491 21.4006 84.8362 21.4608C84.7239 21.521 84.6143 21.5863 84.508 21.6573C84.4018 21.7283 84.2993 21.8045 84.2005 21.8854C84.1018 21.9663 84.0073 22.0523 83.917 22.1426C83.8267 22.2329 83.7412 22.3274 83.6603 22.4261C83.5789 22.5248 83.5032 22.6274 83.4322 22.7336C83.3612 22.8399 83.2954 22.949 83.2352 23.0618C83.175 23.1742 83.1205 23.2899 83.0716 23.4079C83.0227 23.5259 82.9799 23.6458 82.9428 23.768C82.9056 23.8903 82.8746 24.014 82.8497 24.1395C82.8247 24.2646 82.8064 24.3906 82.7937 24.518C82.781 24.645 82.7749 24.7724 82.7749 24.9003V31.4003C82.7749 31.4854 82.7834 31.57 82.7998 31.6537C82.8167 31.7374 82.8412 31.8188 82.8736 31.8977C82.9066 31.9767 82.9465 32.0515 82.994 32.1225C83.0415 32.1935 83.0951 32.2589 83.1558 32.3195C83.2159 32.3797 83.2818 32.4338 83.3528 32.4813C83.4238 32.5288 83.4985 32.5687 83.5775 32.6012C83.6561 32.6341 83.7374 32.6585 83.8211 32.675C83.9048 32.6919 83.9894 32.7004 84.075 32.7004Z" fill="#005EB8"/>
<path d="M100.975 41.8001C101.103 41.8001 101.23 41.794 101.357 41.7813C101.485 41.769 101.611 41.7502 101.736 41.7253C101.861 41.7004 101.985 41.6693 102.107 41.6322C102.229 41.5951 102.349 41.5523 102.467 41.5034C102.585 41.4545 102.701 41.3999 102.813 41.3397C102.926 41.2796 103.035 41.2137 103.142 41.1427C103.248 41.0717 103.35 40.996 103.449 40.9147C103.548 40.8338 103.642 40.7482 103.733 40.658C103.823 40.5677 103.909 40.4732 103.99 40.3744C104.071 40.2757 104.147 40.1732 104.218 40.0669C104.289 39.9607 104.354 39.8511 104.414 39.7387C104.475 39.6259 104.529 39.5107 104.578 39.3927C104.627 39.2746 104.67 39.1547 104.707 39.0325C104.744 38.9102 104.775 38.7861 104.8 38.661C104.825 38.536 104.844 38.4095 104.856 38.2825C104.869 38.1551 104.875 38.0277 104.875 37.9003V31.4003C104.875 31.3147 104.867 31.23 104.85 31.1463C104.833 31.0627 104.809 30.9813 104.776 30.9028C104.744 30.8238 104.703 30.749 104.656 30.678C104.609 30.607 104.555 30.5412 104.494 30.481C104.434 30.4204 104.368 30.3668 104.297 30.3193C104.226 30.2718 104.152 30.2318 104.073 30.1989C103.994 30.1665 103.912 30.142 103.829 30.1251C103.745 30.1086 103.66 30.1002 103.575 30.1002C103.49 30.1002 103.405 30.1086 103.321 30.1251C103.237 30.142 103.156 30.1665 103.078 30.1989C102.999 30.2318 102.924 30.2718 102.853 30.3193C102.782 30.3668 102.716 30.4204 102.656 30.481C102.595 30.5412 102.542 30.607 102.494 30.678C102.447 30.749 102.407 30.8238 102.374 30.9028C102.341 30.9813 102.317 31.0627 102.3 31.1463C102.283 31.23 102.275 31.3147 102.275 31.4003V37.9003C102.275 37.9854 102.267 38.07 102.25 38.1537C102.233 38.2374 102.209 38.3187 102.176 38.3977C102.143 38.4767 102.103 38.5515 102.056 38.6225C102.008 38.6935 101.955 38.7588 101.894 38.8195C101.834 38.8797 101.768 38.9337 101.697 38.9812C101.626 39.0287 101.551 39.0687 101.472 39.1011C101.394 39.134 101.312 39.1585 101.229 39.175C101.145 39.1919 101.06 39.2003 100.975 39.2003C100.89 39.2003 100.805 39.2083 100.721 39.2253C100.638 39.2417 100.556 39.2666 100.477 39.2991C100.398 39.332 100.324 39.372 100.253 39.4195C100.182 39.4665 100.116 39.5205 100.056 39.5807C99.9955 39.6414 99.9414 39.7067 99.8939 39.7777C99.8464 39.8487 99.8065 39.924 99.774 40.0025C99.7411 40.0815 99.7167 40.1628 99.7002 40.2465C99.6833 40.3302 99.6748 40.4149 99.6748 40.5C99.6748 40.5855 99.6833 40.6702 99.7002 40.7539C99.7167 40.8376 99.7411 40.9189 99.774 40.9974C99.8065 41.0764 99.8464 41.1517 99.8939 41.2222C99.9414 41.2932 99.9955 41.359 100.056 41.4192C100.116 41.4799 100.182 41.5335 100.253 41.581C100.324 41.6284 100.398 41.6684 100.477 41.7013C100.556 41.7338 100.638 41.7587 100.721 41.7751C100.805 41.7921 100.89 41.8001 100.975 41.8001Z" fill="#005EB8"/>
<path d="M111.375 34C111.46 34 111.545 33.992 111.628 33.975C111.712 33.9586 111.794 33.9337 111.873 33.9012C111.951 33.8683 112.026 33.8283 112.097 33.7809C112.168 33.7338 112.234 33.6798 112.294 33.6196C112.354 33.5589 112.409 33.4936 112.456 33.4226C112.503 33.3516 112.543 33.2763 112.576 33.1978C112.608 33.1188 112.633 33.0375 112.65 32.9538C112.667 32.8701 112.675 32.7855 112.675 32.7003V31.4003C112.675 31.3147 112.667 31.23 112.65 31.1463C112.633 31.0627 112.608 30.9813 112.576 30.9028C112.543 30.8238 112.503 30.749 112.456 30.678C112.409 30.607 112.354 30.5412 112.294 30.481C112.234 30.4204 112.168 30.3668 112.097 30.3193C112.026 30.2718 111.951 30.2318 111.873 30.1989C111.794 30.1665 111.712 30.142 111.628 30.1251C111.545 30.1086 111.46 30.1002 111.375 30.1002C111.289 30.1002 111.205 30.1086 111.121 30.1251C111.037 30.142 110.956 30.1665 110.878 30.1989C110.799 30.2318 110.723 30.2718 110.653 30.3193C110.582 30.3668 110.516 30.4204 110.456 30.481C110.395 30.5412 110.342 30.607 110.294 30.678C110.247 30.749 110.207 30.8238 110.174 30.9028C110.141 30.9813 110.116 31.0627 110.1 31.1463C110.083 31.23 110.075 31.3147 110.075 31.4003V32.7003C110.075 32.7855 110.083 32.8701 110.1 32.9538C110.116 33.0375 110.141 33.1188 110.174 33.1978C110.207 33.2763 110.247 33.3516 110.294 33.4226C110.342 33.4936 110.395 33.5589 110.456 33.6196C110.516 33.6798 110.582 33.7338 110.653 33.7809C110.723 33.8283 110.799 33.8683 110.878 33.9012C110.956 33.9337 111.037 33.9586 111.121 33.975C111.205 33.992 111.289 34 111.375 34Z" fill="#005EB8"/>
<path d="M94.475 32.7003V31.4003C94.475 31.3147 94.4665 31.23 94.45 31.1463C94.4336 31.0627 94.4087 30.9813 94.3762 30.9028C94.3433 30.8238 94.3033 30.749 94.2558 30.678C94.2084 30.607 94.1548 30.5412 94.0941 30.481C94.0339 30.4204 93.9681 30.3668 93.8971 30.3193C93.8261 30.2718 93.7513 30.2318 93.6723 30.1989C93.5938 30.1665 93.5125 30.142 93.4288 30.1251C93.3451 30.1086 93.2604 30.1002 93.1749 30.1002C93.0898 30.1002 93.0051 30.1086 92.9214 30.1251C92.8377 30.142 92.7564 30.1665 92.6774 30.1989C92.5989 30.2318 92.5236 30.2718 92.4526 30.3193C92.3816 30.3668 92.3163 30.4204 92.2556 30.481C92.1954 30.5412 92.1414 30.607 92.0944 30.678C92.0469 30.749 92.0069 30.8238 91.974 30.9028C91.9415 30.9813 91.9166 31.0627 91.9002 31.1463C91.8832 31.23 91.8752 31.3147 91.8752 31.4003V32.7003C91.8752 32.7855 91.8832 32.8701 91.9002 32.9538C91.9166 33.0375 91.9415 33.1188 91.974 33.1978C92.0069 33.2763 92.0469 33.3516 92.0944 33.4226C92.1414 33.4936 92.1954 33.5589 92.2556 33.6196C92.3163 33.6798 92.3816 33.7338 92.4526 33.7809C92.5236 33.8283 92.5989 33.8683 92.6774 33.9012C92.7564 33.9337 92.8377 33.9586 92.9214 33.975C93.0051 33.992 93.0898 34 93.1749 34C93.2604 34 93.3451 33.992 93.4288 33.975C93.5125 33.9586 93.5938 33.9337 93.6723 33.9012C93.7513 33.8683 93.8261 33.8283 93.8971 33.7809C93.9681 33.7338 94.0339 33.6798 94.0941 33.6196C94.1548 33.5589 94.2084 33.4936 94.2558 33.4226C94.3033 33.3516 94.3433 33.2763 94.3762 33.1978C94.4087 33.1188 94.4336 33.0375 94.45 32.9538C94.4665 32.8701 94.475 32.7855 94.475 32.7003Z" fill="#005EB8"/>
<path d="M93.4346 46.4799C93.563 46.6511 93.6961 46.818 93.8338 46.9811C93.9716 47.1443 94.1141 47.3032 94.2608 47.4579C94.4079 47.6131 94.5593 47.7635 94.715 47.9093C94.8706 48.0555 95.0305 48.1971 95.1946 48.3339C95.3587 48.4707 95.5261 48.6024 95.6977 48.7298C95.8693 48.8567 96.0447 48.979 96.2234 49.0956C96.402 49.2127 96.5835 49.3241 96.7688 49.4309C96.954 49.5371 97.1421 49.6382 97.333 49.7337C97.5239 49.8291 97.7176 49.9189 97.9137 50.0031C98.1103 50.0873 98.3087 50.1658 98.5095 50.2387C98.7102 50.3115 98.9129 50.3783 99.1174 50.4394C99.322 50.5006 99.5284 50.5556 99.7362 50.6045C99.944 50.6534 100.153 50.6966 100.363 50.7333C100.574 50.7704 100.785 50.8015 100.997 50.8259C101.209 50.8509 101.421 50.8692 101.635 50.8814C101.848 50.8941 102.061 50.9002 102.275 50.9002C102.488 50.9002 102.702 50.8941 102.915 50.8814C103.128 50.8692 103.341 50.8509 103.553 50.8259C103.765 50.8015 103.976 50.7704 104.186 50.7333C104.397 50.6966 104.606 50.6534 104.813 50.6045C105.021 50.5556 105.228 50.5006 105.432 50.4394C105.637 50.3783 105.839 50.3115 106.04 50.2387C106.241 50.1658 106.439 50.0873 106.636 50.0031C106.832 49.9189 107.026 49.8291 107.217 49.7337C107.407 49.6382 107.596 49.5371 107.781 49.4309C107.966 49.3241 108.148 49.2127 108.326 49.0956C108.505 48.979 108.68 48.8567 108.852 48.7298C109.024 48.6024 109.191 48.4707 109.355 48.3339C109.519 48.1971 109.679 48.0555 109.835 47.9093C109.99 47.7635 110.142 47.6131 110.289 47.4579C110.436 47.3032 110.578 47.1443 110.716 46.9811C110.854 46.818 110.987 46.6511 111.115 46.4799C111.166 46.4117 111.21 46.3393 111.247 46.2622C111.284 46.1851 111.313 46.1056 111.334 46.0229C111.355 45.9401 111.368 45.856 111.373 45.7708C111.377 45.6857 111.374 45.6006 111.362 45.5165C111.35 45.4318 111.329 45.3491 111.301 45.2687C111.273 45.1883 111.237 45.1112 111.193 45.0378C111.15 44.9645 111.099 44.8958 111.043 44.8323C110.986 44.7689 110.923 44.7115 110.855 44.6602C110.786 44.609 110.714 44.5648 110.637 44.5281C110.56 44.491 110.48 44.4618 110.397 44.4407C110.315 44.4195 110.231 44.4068 110.145 44.4021C110.06 44.3974 109.976 44.4012 109.891 44.4134C109.806 44.4251 109.724 44.4454 109.643 44.4736C109.563 44.5023 109.486 44.538 109.412 44.5817C109.339 44.625 109.27 44.6753 109.207 44.7322C109.143 44.7891 109.086 44.8516 109.035 44.9203C108.937 45.051 108.835 45.1784 108.73 45.303C108.624 45.4281 108.516 45.5494 108.403 45.6679C108.29 45.7864 108.175 45.9016 108.056 46.013C107.937 46.1249 107.815 46.2331 107.689 46.3374C107.564 46.4423 107.436 46.5434 107.304 46.6402C107.173 46.7376 107.039 46.8307 106.902 46.9205C106.766 47.0098 106.627 47.0949 106.485 47.1763C106.343 47.2576 106.2 47.3352 106.054 47.4081C105.908 47.481 105.759 47.5496 105.609 47.614C105.459 47.6789 105.308 47.7386 105.154 47.7946C105.001 47.8501 104.846 47.9013 104.689 47.9479C104.533 47.9944 104.375 48.0367 104.216 48.0739C104.057 48.1115 103.897 48.1444 103.737 48.1726C103.576 48.2008 103.414 48.2243 103.252 48.2436C103.09 48.2624 102.927 48.2765 102.764 48.2859C102.601 48.2953 102.438 48.3 102.275 48.3C102.112 48.3 101.948 48.2953 101.785 48.2859C101.622 48.2765 101.46 48.2624 101.298 48.2436C101.136 48.2243 100.974 48.2008 100.813 48.1726C100.652 48.1444 100.492 48.1115 100.333 48.0739C100.174 48.0367 100.017 47.9944 99.8603 47.9479C99.7038 47.9013 99.5486 47.8501 99.3953 47.7946C99.2416 47.7386 99.0901 47.6789 98.9402 47.614C98.7897 47.5496 98.6421 47.481 98.4958 47.4081C98.3496 47.3352 98.2062 47.2576 98.0642 47.1763C97.9226 47.0949 97.7839 47.0098 97.6471 46.9205C97.5103 46.8307 97.3768 46.7376 97.2456 46.6402C97.1139 46.5434 96.986 46.4423 96.8605 46.3374C96.7349 46.2331 96.6127 46.1249 96.4937 46.013C96.3748 45.9016 96.2591 45.7864 96.1467 45.6679C96.0339 45.5494 95.9253 45.4281 95.8199 45.303C95.7146 45.1784 95.6126 45.051 95.5148 44.9203C95.4635 44.8521 95.4062 44.7891 95.3427 44.7322C95.2792 44.6753 95.2106 44.625 95.1372 44.5817C95.0639 44.538 94.9867 44.5023 94.9063 44.4736C94.8255 44.4454 94.7432 44.4251 94.6585 44.4134C94.5739 44.4012 94.4893 44.3974 94.4042 44.4021C94.3186 44.4068 94.2349 44.4195 94.1521 44.4407C94.0694 44.4618 93.9895 44.491 93.9128 44.5281C93.8357 44.5648 93.7633 44.609 93.6946 44.6602C93.6265 44.7115 93.5639 44.7689 93.507 44.8323C93.4497 44.8958 93.3998 44.9645 93.3561 45.0378C93.3128 45.1112 93.2766 45.1883 93.2484 45.2687C93.2202 45.3491 93.2 45.4318 93.1878 45.5165C93.176 45.6006 93.1723 45.6857 93.1765 45.7708C93.1812 45.856 93.1944 45.9401 93.2155 46.0229C93.2367 46.1056 93.2658 46.1851 93.3025 46.2622C93.3396 46.3393 93.3834 46.4117 93.4346 46.4799Z" fill="#005EB8"/>
</svg>
