<svg width="180" height="180" viewBox="0 0 180 180" fill="none" xmlns="http://www.w3.org/2000/svg">
<circle cx="34.4747" cy="15.5689" r="2.80576" fill="#79AFE0"/>
<circle cx="63.6551" cy="162.591" r="6.17266" fill="#79AFE0"/>
<circle cx="143.338" cy="133.411" r="5.05036" fill="#DEEAF6"/>
<circle cx="125.943" cy="35.2091" r="7.85612" fill="#DEEAF6"/>
<path fill-rule="evenodd" clip-rule="evenodd" d="M74.1415 18.3748C91.5021 18.3851 100.816 37.6225 113.032 49.9578C125.145 62.1881 142.586 71.6885 143.935 88.8486C145.336 106.671 133.188 122.678 119.67 134.377C107.12 145.24 90.6638 150.839 74.1415 149.257C58.9751 147.805 46.055 138.343 36.5694 126.421C28.1538 115.843 26.3228 102.364 26.0817 88.8486C25.8345 74.9928 27.3965 61.3605 35.2043 49.9114C44.9868 35.5665 56.7785 18.3644 74.1415 18.3748Z" fill="#DEEAF6"/>
<path d="M76.5914 16.7762L68.7587 19.9045C68.6607 19.7776 68.521 19.6666 68.4102 19.568C67.4843 18.7964 66.6483 17.8941 65.9478 16.9137C65.3084 16.0277 64.6532 14.9818 63.6076 14.6856C62.7547 14.4558 61.8443 14.7954 61.0238 15.1231C58.2559 16.2286 55.4879 17.3341 52.6992 18.4479C50.5055 19.3241 48.291 20.2085 46.0966 21.0849C45.6456 21.2651 45.0394 21.4125 44.6493 21.687C44.3215 21.9367 44.0792 22.3423 43.9188 22.7159C43.5663 23.4985 43.5 24.4049 43.5486 25.2414C43.6343 26.5868 43.9655 27.9522 43.7845 29.2847C43.7683 29.4813 43.7314 29.6861 43.7356 29.8753L35.923 32.9956C33.2166 34.0765 31.9192 37.1384 32.9923 39.8253L42.0919 62.6089C43.1731 65.3159 46.2356 66.6131 48.9212 65.5405L89.6023 49.2927C92.3087 48.2118 93.606 45.1493 92.5331 42.463L83.4497 19.7202C82.3479 17.0215 79.2777 15.7033 76.5914 16.7762ZM67.7831 53.7743C60.8324 56.5503 52.9411 53.163 50.1646 46.2111C47.388 39.2592 50.7745 31.3675 57.7252 28.5915C64.6765 25.8152 72.5678 29.2026 75.3443 36.1544C78.1208 43.1063 74.7343 50.998 67.7831 53.7743ZM78.6414 24.9455C77.6777 25.3304 76.5876 24.8626 76.2027 23.8989C75.8178 22.9352 76.2854 21.8444 77.2491 21.4595C78.2128 21.0746 79.3038 21.5429 79.6887 22.5066C80.0736 23.4703 79.6051 24.5606 78.6414 24.9455Z" fill="#79AFE0"/>
<path d="M70.4029 38.128C70.5029 38.3785 70.5899 38.6335 70.6651 38.8926C70.7403 39.1516 70.8026 39.4137 70.8513 39.6791C70.9007 39.9442 70.9375 40.2115 70.96 40.4803C70.9831 40.7488 70.9932 41.0183 70.9892 41.2877C70.986 41.5576 70.9696 41.8263 70.9398 42.0948C70.9096 42.3627 70.8667 42.6286 70.811 42.8926C70.7553 43.1566 70.686 43.4168 70.605 43.6739C70.5233 43.9313 70.4291 44.1838 70.3232 44.4318C70.2164 44.6794 70.0983 44.9216 69.968 45.1581C69.838 45.3938 69.6965 45.6235 69.5436 45.8457C69.3915 46.0683 69.2277 46.2828 69.054 46.4886C68.8806 46.695 68.6973 46.8926 68.5039 47.0808C68.3105 47.269 68.109 47.4477 67.8984 47.6159C67.6873 47.7844 67.469 47.9422 67.2428 48.0891C67.0167 48.236 66.7838 48.3714 66.5445 48.4959C66.3049 48.6199 66.0599 48.7319 65.8093 48.832C65.5588 48.932 65.304 49.0196 65.045 49.0948C64.7863 49.1692 64.5242 49.2314 64.2585 49.281C63.9934 49.3304 63.7264 49.3663 63.4579 49.3894C63.1894 49.4126 62.9196 49.4221 62.6504 49.4186C62.3806 49.4155 62.1116 49.3985 61.8437 49.3684C61.5754 49.3391 61.3095 49.2962 61.0453 49.2399C60.7819 49.1839 60.5211 49.1149 60.264 49.0338C60.0072 48.9519 59.7547 48.8577 59.5068 48.7518C59.2592 48.645 59.0169 48.5269 58.7804 48.3966C58.5439 48.2663 58.3151 48.1251 58.0928 47.9722C57.87 47.8195 57.6557 47.6563 57.4499 47.4826C57.2433 47.3086 57.0457 47.1253 56.8575 46.9319C56.6695 46.7391 56.4912 46.5368 56.3224 46.3264C56.1541 46.1159 55.9961 45.897 55.8492 45.6708C55.7023 45.4447 55.5669 45.2118 55.4423 44.9725C55.3184 44.7329 55.2064 44.4879 55.1063 44.2373C55.0063 43.9868 54.9186 43.732 54.8434 43.473C54.7689 43.2137 54.7066 42.9516 54.6573 42.6865C54.6079 42.4214 54.572 42.1544 54.5486 41.8853C54.5261 41.6165 54.5162 41.3476 54.5194 41.0778C54.5226 40.8079 54.5395 40.539 54.5697 40.2711C54.5989 40.0028 54.6418 39.7369 54.6982 39.4727C54.7541 39.2093 54.8225 38.9488 54.9042 38.6914C54.9859 38.434 55.0801 38.1815 55.1863 37.9341C55.2928 37.6859 55.4109 37.4437 55.5408 37.208C55.6711 36.9715 55.8126 36.7418 55.965 36.5199C56.118 36.2976 56.2811 36.0833 56.4552 35.8767C56.6286 35.6703 56.8121 35.4733 57.0053 35.2845C57.1981 35.0965 57.4004 34.9182 57.611 34.75C57.8213 34.5812 58.0396 34.4233 58.2657 34.2764C58.4925 34.1293 58.7254 33.9939 58.9644 33.8702C59.2037 33.7456 59.4487 33.6336 59.6992 33.5336C59.9498 33.4335 60.2045 33.3459 60.4638 33.2713C60.7229 33.1961 60.985 33.1339 61.2501 33.0845C61.5152 33.0352 61.7821 32.9992 62.0515 32.9765C62.32 32.9533 62.5889 32.9435 62.8588 32.9467C63.1289 32.9504 63.3976 32.9668 63.6655 32.9969C63.9334 33.027 64.1999 33.0697 64.4633 33.1257C64.7273 33.1814 64.988 33.2504 65.2448 33.3323C65.5019 33.4134 65.7544 33.5076 66.0027 33.6141C66.25 33.7203 66.4923 33.8384 66.7288 33.9687C66.9647 34.0993 67.1944 34.2408 67.4164 34.3931C67.6386 34.5461 67.8529 34.7093 68.0595 34.8833C68.2659 35.0567 68.4629 35.2403 68.6511 35.4337C68.8399 35.6268 69.018 35.8285 69.1862 36.0391C69.3553 36.25 69.5125 36.4685 69.6594 36.6947C69.8069 36.9206 69.9423 37.1535 70.0662 37.3931C70.1902 37.6326 70.3028 37.8774 70.4029 38.128Z" fill="#79AFE0"/>
<path d="M60.639 72.9092C60.638 72.9092 60.638 72.9092 60.638 72.9092C60.3508 73.2209 60.1286 73.5872 59.9609 73.9903L59.9958 74.1202C60.1389 73.6315 60.3621 73.2312 60.639 72.9092Z" fill="#111C23"/>
<path d="M67.4121 78.0049C66.995 79.7009 65.9713 81.0485 64.0446 81.1474L63.3628 85.0743C63.5511 85.2099 63.7404 85.3502 63.9269 85.4943C65.9657 85.4717 68.3717 84.8973 70.1101 82.7747C67.9998 80.9911 68.5535 77.5039 68.126 75.6563C67.8858 74.6148 67.6353 74.0554 67.2473 73.5996C67.8152 74.5215 68.0581 75.9774 67.4121 78.0049Z" fill="#111C23"/>
<path d="M36.1189 102.668L39.7981 100.616C40.3349 99.9164 41.2785 98.695 42.4509 97.209C42.8747 96.6402 43.3192 96.0357 43.7514 95.481V95.4801C43.7674 95.4593 43.7844 95.4386 43.8014 95.416C43.8155 95.3991 43.8296 95.3802 43.8428 95.3623L43.8437 95.3633C45.003 93.9018 48.6003 89.5125 48.6003 89.5125L36.1123 102.672L36.1189 102.668Z" fill="#F57C79"/>
<path d="M43.8013 95.416C43.8154 95.399 43.8295 95.3811 43.8436 95.3632L43.8427 95.3623C43.8295 95.3802 43.8154 95.399 43.8013 95.416Z" fill="#3683CC"/>
<path d="M41.9272 97.904L62.2182 106L62.2625 106.017C62.2625 106.017 63.0771 104.029 63.4123 103.045L43.7513 95.481C43.3191 96.0356 42.8746 96.6402 42.4508 97.209C42.2719 97.4501 42.0958 97.6846 41.9272 97.904Z" fill="#3683CC"/>
<path d="M39.3075 101.258L37.1416 104.369L60.8246 113.682L60.77 109.931L39.3075 101.258Z" fill="#3683CC"/>
<path d="M63.9617 81.151C63.5869 81.1632 63.1791 81.1293 62.7356 81.0427C62.0717 80.9118 61.5726 80.65 61.1978 80.3157C61.2731 80.7121 61.3607 81.1142 61.4595 81.4966C61.7552 81.3911 62.0745 81.3299 62.4097 81.3148C63.2055 81.279 63.6933 81.2687 63.9617 81.151Z" fill="#F57C79"/>
<path d="M60.5498 76.2607C60.8107 76.3427 61.0216 76.5141 61.1582 76.7335C61.3427 76.6148 61.6394 76.5131 62.1055 76.4952C62.8382 76.466 64.4551 76.0018 65.0823 75.0695C65.3582 76.1581 67.3603 77.4322 67.412 78.0048C68.0581 75.9773 67.8151 74.5214 67.2472 73.5995C66.7924 72.8621 66.1294 72.4666 65.5456 72.3969C64.6397 71.6115 61.9963 71.3271 60.6393 72.9092C60.3624 73.2313 60.1392 73.6315 59.9961 74.1202L60.5498 76.2607Z" fill="#111C23"/>
<path d="M62.3653 83.5787C62.0254 83.3027 61.7099 82.4637 61.4594 81.4966C61.3605 81.1142 61.273 80.7121 61.1976 80.3157C61.0394 79.4917 60.9377 78.6959 60.917 78.1695C60.6712 78.3691 60.3426 78.4614 60.0082 78.3965C59.4103 78.2797 59.0204 77.6996 59.1381 77.1025C59.2539 76.5046 59.834 76.1138 60.433 76.2305C60.4725 76.239 60.5121 76.2494 60.5497 76.2607L59.996 74.1202L59.9612 73.9902V73.9893C58.1917 77.3144 58.4855 80.9231 58.7897 82.6351C58.7897 82.6351 59.0477 82.8978 59.4847 83.1681C59.5798 83.2265 59.6843 83.2858 59.7954 83.3423C60.4452 83.6728 61.3539 83.9262 62.3653 83.5787Z" fill="#111C23"/>
<path d="M66.0962 78.2232C65.9795 78.2006 65.8674 78.276 65.8448 78.3918C65.8222 78.5086 65.8985 78.6206 66.0134 78.6432C66.1292 78.6658 66.2422 78.5905 66.2648 78.4747C66.2874 78.3588 66.2121 78.2458 66.0962 78.2232Z" fill="#310D06"/>
<path d="M62.066 77.7459C62.0481 77.8626 62.1281 77.9719 62.2449 77.9898C62.3626 78.0076 62.4709 77.9267 62.4888 77.8099C62.5067 77.6931 62.4257 77.5839 62.3089 77.566C62.1931 77.549 62.0839 77.6291 62.066 77.7459Z" fill="#310D06"/>
<path d="M66.0014 79.9956C66.315 80.0502 66.6135 79.8402 66.6682 79.5257C66.7237 79.2121 66.5128 78.9135 66.1983 78.858C65.8847 78.8043 65.5852 79.0143 65.5306 79.3288C65.476 79.6424 65.6869 79.9409 66.0014 79.9956Z" fill="#F57C79"/>
<path d="M62.5168 78.8062C62.5714 78.4916 62.3605 78.1931 62.046 78.1385C61.7324 78.0839 61.4329 78.2948 61.3792 78.6084C61.3246 78.9229 61.5346 79.2205 61.8492 79.2751C62.1627 79.3298 62.4622 79.1198 62.5168 78.8062Z" fill="#F57C79"/>
<path d="M64.0094 79.0237C64.1139 79.0821 64.243 79.1028 64.3644 79.0944C64.4492 79.0896 64.5368 79.0699 64.5933 79.019C64.6441 78.9719 64.663 78.9079 64.6799 78.8457C64.7863 78.4596 64.8061 78.0396 64.7477 77.6356C64.7345 77.5386 64.7025 77.4238 64.5923 77.3814C64.5302 77.3578 64.4567 77.3654 64.4002 77.3908C64.3437 77.4162 64.2995 77.4577 64.2618 77.5C63.9887 77.8061 63.9228 78.2835 63.8446 78.6565L63.8437 78.6602C63.8145 78.7958 63.8559 78.9371 64.0094 79.0237Z" fill="#F57C79"/>
<path d="M23.9981 112.814C23.6921 114.47 23.2476 116.527 22.7212 118.799C22.724 118.8 35.2713 127.176 43.1421 127.53C42.9915 127.462 42.8408 127.393 42.691 127.325C32.3803 122.551 23.9981 112.814 23.9981 112.814Z" fill="#1F79CE"/>
<path d="M63.4124 103.045L64.0208 101.102C62.5442 96.3465 65.6857 86.9586 65.6857 86.9586C65.6857 86.9586 65.6773 86.9502 65.6612 86.937C65.5755 86.8626 65.2817 86.6055 65.0529 86.4096C65.003 86.3672 64.9559 86.3277 64.9154 86.2928C61.223 92.3264 60.9998 94.1457 57.6209 92.3113C54.243 90.4759 55.6481 89.2988 58.702 82.9187C58.654 82.9055 58.5994 82.8886 58.541 82.8707C58.2378 82.7812 57.8309 82.6654 57.7434 82.6409C57.7321 82.6371 57.7245 82.6353 57.7245 82.6353L49.0731 89.1556L48.6003 89.5125C48.6003 89.5125 45.003 93.9018 43.8438 95.3634C43.8296 95.3813 43.8155 95.3992 43.8014 95.4161C43.7844 95.4387 43.7675 95.4594 43.7515 95.4802V95.4811L63.4124 103.045Z" fill="#005EB8"/>
<path d="M99.3387 132.382C94.5567 129.982 90.1721 127.787 87.6578 126.541C80.0139 122.751 60.8247 113.682 60.8247 113.682L37.1417 104.369C37.1417 104.369 36.0418 104.045 34.3166 103.587C32.872 103.205 30.9905 102.73 28.947 102.275C24.0002 101.171 18.1108 100.182 15.2122 100.901C15.2103 100.902 15.2084 100.903 15.2065 100.903C12.8617 101.104 10.7946 102.538 10.061 105.547C10.0507 105.588 10.0403 105.63 10.03 105.672C9.97063 105.935 9.92072 106.21 9.88211 106.496C9.87646 106.538 9.86987 106.578 9.86516 106.619C9.82843 106.911 9.80395 107.215 9.78982 107.531C9.78888 107.553 9.787 107.575 9.78511 107.597C9.24834 121.446 11.015 146.012 11.015 146.012L15.6802 145.901C15.6802 145.901 20.1665 129.82 22.7214 118.799C23.2478 116.527 23.6923 114.471 23.9983 112.813C23.9983 112.813 32.3805 122.551 42.6912 127.325C42.8965 127.356 43.0961 127.383 43.2901 127.403C44.0633 128.117 45.1359 128.774 46.5758 129.372C56.41 133.461 77.0975 137.854 81.3417 138.916C87.5561 140.471 113.329 146.155 118.229 147.235C118.751 147.349 119.037 147.413 119.037 147.413L121.085 143.32C121.085 143.32 110.411 137.942 100.748 133.089C100.275 132.853 99.8049 132.616 99.3387 132.382Z" fill="#005EB8"/>
<path d="M66.8687 77.8211C66.7265 77.5753 66.4553 77.4831 66.1991 77.4096C66.1266 77.3898 66.0513 77.3701 65.9731 77.3842C65.8149 77.4124 65.6539 77.6629 65.7584 77.8117C65.8036 77.8757 65.8752 77.9059 65.9448 77.9341C66.0494 77.9765 66.1539 78.0189 66.2584 78.0613C66.3611 78.1027 66.4637 78.1441 66.5664 78.1856C66.6596 78.2232 66.7783 78.2543 66.8611 78.1696C66.9054 78.1234 66.9252 78.0528 66.9233 77.9906C66.9223 77.9775 66.9205 77.9652 66.9186 77.952C66.911 77.9049 66.8913 77.8607 66.8687 77.8211Z" fill="#091013"/>
<path d="M62.7079 76.8173C62.6401 76.7777 62.562 76.7721 62.4866 76.7664C62.2201 76.7476 61.9339 76.7438 61.7173 76.9275C61.6824 76.9576 61.6495 76.9924 61.6259 77.0348C61.6193 77.0452 61.6146 77.0565 61.6099 77.0687C61.5854 77.1271 61.5817 77.1996 61.608 77.2589C61.6561 77.3663 61.7785 77.3767 61.8792 77.3729C61.9894 77.3682 62.0996 77.3635 62.2117 77.3597C62.3237 77.354 62.4367 77.3503 62.5488 77.3456C62.6241 77.3418 62.7023 77.338 62.7654 77.2928C62.9151 77.1883 62.8473 76.8973 62.7079 76.8173Z" fill="#091013"/>
<path d="M64.6104 79.5482C64.489 79.6669 64.3185 79.7394 64.1528 79.7394C64.1066 79.7394 64.0605 79.7337 64.0162 79.7224C63.8128 79.6706 63.6433 79.4748 63.6433 79.2704C63.6433 79.2393 63.6179 79.2148 63.5868 79.2148C63.5557 79.2148 63.5312 79.2403 63.5312 79.2713C63.535 79.536 63.7384 79.7648 63.9889 79.8317C64.0426 79.8448 64.0972 79.8514 64.1528 79.8514C64.3505 79.8514 64.5464 79.7657 64.6886 79.6283C64.7112 79.6066 64.7112 79.5718 64.6905 79.5492C64.6679 79.5275 64.633 79.5265 64.6104 79.5482Z" fill="#A34C39"/>
<path d="M10.0282 104.488C10.0207 104.457 9.98868 104.438 9.95855 104.445L6.38759 105.349C6.36593 105.355 6.35087 105.373 6.34616 105.394C6.34521 105.398 6.34521 105.405 6.34521 105.411C6.34616 105.413 6.34521 105.416 6.34616 105.419C6.35369 105.45 6.38571 105.469 6.41584 105.461L9.9868 104.558C10.0179 104.55 10.0367 104.519 10.0282 104.488Z" fill="#BA4642"/>
<path d="M6.7263 106.372C6.7263 106.374 6.7263 106.375 6.7263 106.376C6.72819 106.383 6.73196 106.39 6.73572 106.395C6.74891 106.415 6.77245 106.425 6.79599 106.419L10.0298 105.673C10.0402 105.63 10.0505 105.588 10.0609 105.547L6.77057 106.307C6.74043 106.313 6.7216 106.342 6.7263 106.372Z" fill="#BA4642"/>
<path d="M7.45061 107.098C7.45061 107.102 7.44967 107.104 7.45061 107.108C7.45438 107.124 7.46474 107.136 7.47792 107.145C7.49017 107.152 7.50523 107.155 7.5203 107.152L9.86515 106.619C9.86986 106.578 9.87645 106.538 9.8821 106.497L7.49487 107.039C7.46662 107.045 7.44967 107.071 7.45061 107.098Z" fill="#BA4642"/>
<path d="M100.279 129.225C100.256 129.203 100.219 129.202 100.197 129.224C100.173 129.246 100.173 129.283 100.195 129.306L102.754 131.953C102.776 131.977 102.813 131.977 102.836 131.954C102.837 131.953 102.838 131.952 102.838 131.95C102.844 131.945 102.848 131.938 102.849 131.933C102.857 131.913 102.852 131.889 102.838 131.873L100.279 129.225Z" fill="#BA4642"/>
<path d="M99.5301 130.028C99.5075 130.005 99.4707 130.005 99.4481 130.028C99.4255 130.05 99.4265 130.087 99.4491 130.11L101.926 132.568C101.945 132.585 101.971 132.589 101.993 132.578C101.998 132.575 102.003 132.572 102.008 132.568C102.01 132.567 102.01 132.566 102.011 132.565C102.03 132.542 102.029 132.507 102.008 132.486L99.5301 130.028Z" fill="#BA4642"/>
<path d="M98.7727 130.528C98.7501 130.504 98.7134 130.504 98.6908 130.528C98.6682 130.55 98.6691 130.587 98.6917 130.61L100.925 132.809C100.936 132.82 100.95 132.825 100.964 132.825C100.979 132.825 100.995 132.82 101.006 132.808C101.008 132.806 101.01 132.803 101.012 132.801C101.028 132.778 101.026 132.747 101.006 132.727L98.7727 130.528Z" fill="#BA4642"/>
<path d="M60.7173 77.6977C60.3586 77.5367 60.2776 77.2137 60.2747 76.9717C60.2738 76.9378 60.2465 76.9105 60.2126 76.9114C60.1796 76.9123 60.1533 76.9397 60.1533 76.9736C60.1561 77.1374 60.19 77.3342 60.303 77.5066L59.8566 77.5037C59.8227 77.5037 59.7954 77.531 59.7954 77.5649C59.7954 77.5941 59.8171 77.6205 59.8453 77.6252H59.8557L60.4019 77.628C60.4706 77.6977 60.5582 77.7599 60.6674 77.8088L60.6938 77.8201C60.7173 77.8239 60.7428 77.8164 60.7569 77.7966C60.7757 77.7693 60.7738 77.7335 60.7475 77.7137C60.7428 77.7109 60.7324 77.7053 60.7173 77.6977Z" fill="#BA4642"/>
<path d="M9.98656 104.558L6.41561 105.461C6.38547 105.469 6.35345 105.45 6.34592 105.419C6.34498 105.416 6.34592 105.413 6.34498 105.41C6.08507 105.455 5.92309 105.799 6.03704 106.049C6.15005 106.297 6.45516 106.414 6.72637 106.372C6.72166 106.342 6.7405 106.313 6.77063 106.307L10.061 105.547C10.7945 102.538 12.8616 101.104 15.2065 100.902C15.2083 100.902 15.2102 100.901 15.2112 100.9C18.1107 100.182 24.0001 101.171 28.9469 102.274C30.9904 102.73 32.872 103.206 34.3165 103.588C34.5849 103.48 34.859 103.352 35.1396 103.201C35.1405 103.2 35.1415 103.2 35.1424 103.199C35.1443 103.198 35.1471 103.196 35.1499 103.195C35.4635 103.026 35.7847 102.852 36.1124 102.672L48.6004 89.5124L49.0731 89.1555L57.7246 82.6351C57.5833 82.5956 57.4449 82.5569 57.3112 82.5212C57.1981 82.4901 57.088 82.4665 56.9806 82.4487C52.5405 81.1105 49.2445 80.6905 43.8777 84.3829C43.8777 84.3829 36.7414 89.374 31.0545 93.8659C25.569 95.2596 9.20024 102.309 8.42804 102.429C8.267 102.453 8.10032 102.482 7.96095 102.566C7.82158 102.652 7.71328 102.808 7.73211 102.97C7.76884 103.279 8.17378 103.362 8.48454 103.366C9.11172 103.374 9.55809 103.38 9.55809 103.38C9.55809 103.38 7.92422 103.938 6.76498 104.404C6.53615 104.496 6.29224 104.607 6.17453 104.824C6.06529 105.022 6.14157 105.327 6.34592 105.393C6.35063 105.373 6.3657 105.355 6.38736 105.349L9.95831 104.445C9.98845 104.438 10.0205 104.456 10.028 104.487C10.0365 104.519 10.0176 104.55 9.98656 104.558Z" fill="#F7967E"/>
<path d="M7.64449 107.604C7.81211 107.71 8.02306 107.713 8.22176 107.71C8.3875 107.709 8.94499 107.644 9.7897 107.531C9.80288 107.215 9.82831 106.911 9.86504 106.619L7.52018 107.152C7.50512 107.155 7.49005 107.153 7.47781 107.145C7.40435 107.299 7.49382 107.509 7.64449 107.604Z" fill="#F7967E"/>
<path d="M9.88206 106.497C9.92067 106.21 9.97058 105.935 10.0299 105.673L6.79608 106.419C6.77254 106.425 6.749 106.415 6.73581 106.395C6.56913 106.525 6.61433 106.84 6.79608 106.973C6.97877 107.107 7.22079 107.11 7.45057 107.098C7.44963 107.071 7.46658 107.045 7.49483 107.039L9.88206 106.497Z" fill="#F7967E"/>
<path d="M42.4512 97.209C41.2788 98.695 40.3352 99.9164 39.7984 100.616L36.1191 102.668C37.2887 102.028 38.5374 101.33 39.7984 100.617C39.4839 101.026 39.3078 101.257 39.3078 101.257L60.7702 109.931C60.7702 109.931 61.3852 108.345 62.2186 106L41.9276 97.904C42.0962 97.6845 42.2723 97.4501 42.4512 97.209Z" fill="#F7967E"/>
<path d="M65.1953 86.532C65.3902 86.7005 65.5927 86.8766 65.6615 86.9369C65.5117 86.806 65.3554 86.6704 65.1953 86.532Z" fill="#F7967E"/>
<path d="M57.7437 82.6409C57.8124 82.6606 58.0808 82.736 58.3398 82.8123C58.1354 82.752 57.9358 82.6945 57.7437 82.6409Z" fill="#F7967E"/>
<path d="M58.3394 82.8123C58.4072 82.832 58.4731 82.8509 58.5409 82.8706C58.4768 82.8518 58.4081 82.832 58.3394 82.8123Z" fill="#F7967E"/>
<path d="M80.3972 115.992C82.2749 118.152 95.9843 129.708 99.3387 132.382C99.8048 132.616 100.275 132.853 100.747 133.089C100.861 133.039 100.953 132.941 100.964 132.825C100.95 132.825 100.937 132.82 100.925 132.809L98.6917 130.609C98.6691 130.587 98.6691 130.55 98.6908 130.528C98.7134 130.504 98.7501 130.504 98.7736 130.527L101.006 132.726C101.027 132.746 101.028 132.778 101.012 132.8C101.201 132.931 101.408 133.057 101.635 133.039C101.861 133.021 102.067 132.775 101.993 132.578C101.972 132.588 101.944 132.585 101.926 132.567L99.4488 130.109C99.4262 130.087 99.4262 130.05 99.4479 130.028C99.4705 130.005 99.5072 130.005 99.5298 130.028L102.008 132.485C102.029 132.507 102.03 132.541 102.01 132.564C102.218 132.743 102.54 132.804 102.767 132.652C102.995 132.5 103.036 132.126 102.839 131.95C102.838 131.952 102.837 131.953 102.836 131.954C102.814 131.977 102.777 131.976 102.754 131.953L100.196 129.306C100.173 129.283 100.174 129.246 100.197 129.224C100.219 129.202 100.256 129.203 100.278 129.225L102.838 131.873C102.853 131.889 102.857 131.913 102.85 131.933C103.057 131.983 103.283 131.765 103.296 131.539C103.31 131.292 103.161 131.069 103.015 130.87C102.275 129.865 101.18 128.53 101.18 128.53C101.18 128.53 101.562 128.76 102.1 129.084C102.367 129.244 102.753 129.386 102.948 129.143C103.049 129.016 103.04 128.826 102.966 128.68C102.892 128.534 102.766 128.423 102.641 128.316C102.048 127.808 87.2782 109.348 87.2782 109.348C87.2782 109.348 70.9509 89.7695 65.6858 86.9585C65.6858 86.9585 62.5452 96.3454 64.0209 101.102C67.5777 105.117 78.316 113.601 80.3972 115.992Z" fill="#F7967E"/>
<path d="M63.5311 79.2715C63.5311 79.2404 63.5556 79.215 63.5867 79.215C63.6178 79.215 63.6432 79.2395 63.6432 79.2705C63.6432 79.4749 63.8127 79.6708 64.0161 79.7226C64.0604 79.7339 64.1065 79.7395 64.1526 79.7395C64.3184 79.7395 64.4888 79.667 64.6103 79.5483C64.6329 79.5267 64.6678 79.5276 64.6904 79.5493C64.7111 79.5719 64.7111 79.6067 64.6885 79.6284C64.5463 79.7659 64.3504 79.8516 64.1526 79.8516C64.0971 79.8516 64.0425 79.845 63.9888 79.8318C63.7383 79.7649 63.5349 79.5361 63.5311 79.2715ZM62.7655 77.293C62.7024 77.3382 62.6243 77.3419 62.5489 77.3457C62.4369 77.3504 62.3239 77.3542 62.2118 77.3598C62.0997 77.3636 61.9895 77.3683 61.8794 77.373C61.7786 77.3768 61.6562 77.3664 61.6082 77.2591C61.5818 77.1997 61.5856 77.1272 61.61 77.0688C61.6147 77.0566 61.6195 77.0453 61.626 77.0349C61.6496 76.9925 61.6825 76.9577 61.7174 76.9276C61.934 76.7439 62.2203 76.7477 62.4868 76.7665C62.5621 76.7722 62.6403 76.7778 62.7081 76.8174C62.8474 76.8974 62.9152 77.1884 62.7655 77.293ZM62.0658 77.7459C62.0837 77.6291 62.193 77.5491 62.3088 77.566C62.4256 77.5839 62.5065 77.6932 62.4887 77.81C62.4708 77.9267 62.3625 78.0077 62.2447 77.9898C62.128 77.9719 62.0479 77.8627 62.0658 77.7459ZM62.5169 78.8063C62.4623 79.1199 62.1628 79.3299 61.8492 79.2752C61.5347 79.2206 61.3247 78.923 61.3793 78.6085C61.433 78.2949 61.7325 78.084 62.046 78.1386C62.3606 78.1932 62.5715 78.4917 62.5169 78.8063ZM63.8438 78.6603L63.8447 78.6565C63.9229 78.2836 63.9888 77.8062 64.2619 77.5001C64.2996 77.4578 64.3438 77.4163 64.4003 77.3909C64.4568 77.3655 64.5303 77.3579 64.5924 77.3815C64.7026 77.4238 64.7346 77.5387 64.7478 77.6357C64.8062 78.0397 64.7864 78.4597 64.68 78.8458C64.6631 78.908 64.6442 78.972 64.5934 79.0191C64.5369 79.07 64.4493 79.0897 64.3645 79.0944C64.2431 79.1029 64.114 79.0822 64.0095 79.0238C63.856 78.9372 63.8146 78.7959 63.8438 78.6603ZM60.7569 77.7968C60.7427 77.8165 60.7173 77.8241 60.6938 77.8203L60.6674 77.809C60.5582 77.76 60.4706 77.6979 60.4018 77.6282L59.8556 77.6254H59.8453C59.817 77.6207 59.7954 77.5943 59.7954 77.5651C59.7954 77.5312 59.8227 77.5039 59.8566 77.5039L60.3029 77.5067C60.1899 77.3344 60.156 77.1376 60.1532 76.9737C60.1532 76.9398 60.1796 76.9125 60.2125 76.9116C60.2464 76.9106 60.2738 76.9379 60.2747 76.9718C60.2775 77.2138 60.3585 77.5369 60.7173 77.6979C60.7324 77.7054 60.7427 77.7111 60.7474 77.7139C60.7738 77.7337 60.7757 77.7695 60.7569 77.7968ZM65.5304 79.3289C65.585 79.0144 65.8845 78.8044 66.198 78.8581C66.5126 78.9136 66.7235 79.2122 66.668 79.5257C66.6133 79.8403 66.3148 80.0503 66.0012 79.9957C65.6867 79.941 65.4757 79.6425 65.5304 79.3289ZM66.2649 78.4748C66.2423 78.5906 66.1293 78.666 66.0135 78.6434C65.8986 78.6208 65.8223 78.5087 65.8449 78.3919C65.8675 78.2761 65.9796 78.2008 66.0963 78.2234C66.2122 78.246 66.2875 78.359 66.2649 78.4748ZM65.973 77.3843C66.0511 77.3702 66.1265 77.3899 66.199 77.4097C66.4551 77.4832 66.7263 77.5755 66.8685 77.8213C66.8911 77.8608 66.9109 77.9051 66.9184 77.9521C66.9203 77.9653 66.9222 77.9776 66.9232 77.9908C66.925 78.0529 66.9053 78.1235 66.861 78.1697C66.7781 78.2544 66.6595 78.2234 66.5662 78.1857C66.4636 78.1443 66.361 78.1028 66.2583 78.0614C66.1538 78.019 66.0492 77.9766 65.9447 77.9343C65.875 77.906 65.8035 77.8759 65.7583 77.8118C65.6537 77.663 65.8148 77.4125 65.973 77.3843ZM59.7954 83.3425C59.6842 83.286 59.5797 83.2267 59.4846 83.1683C59.2219 83.0807 58.9601 82.9969 58.702 82.9187C55.6481 89.2988 54.2431 90.4759 57.621 92.3113C60.9998 94.1458 61.223 92.3264 64.9154 86.2929C64.5981 86.0254 64.2647 85.7542 63.9266 85.4943C63.7402 85.3502 63.5509 85.2099 63.3626 85.0743L64.0444 81.1474C65.9711 81.0485 66.9947 79.7009 67.4119 78.0049C67.3601 77.4323 65.358 76.1582 65.0821 75.0696C64.4549 76.0019 62.838 76.4661 62.1054 76.4953C61.6392 76.5132 61.3426 76.6149 61.158 76.7336C61.0215 76.5142 60.8105 76.3428 60.5497 76.2608C60.512 76.2495 60.4725 76.2392 60.4329 76.2307C59.834 76.1139 59.2539 76.5047 59.1381 77.1027C59.0203 77.6998 59.4102 78.2799 60.0082 78.3966C60.3425 78.4616 60.6712 78.3693 60.9169 78.1697C60.9377 78.6961 61.0394 79.4918 61.1976 80.3158C61.5724 80.6501 62.0715 80.9119 62.7354 81.0428C63.1789 81.1295 63.5867 81.1634 63.9615 81.1511C63.6931 81.2688 63.2053 81.2792 62.4095 81.315C62.0743 81.3301 61.7551 81.3913 61.4594 81.4967C61.7099 82.4639 62.0253 83.3029 62.3653 83.5789C61.3539 83.9263 60.4451 83.673 59.7954 83.3425Z" fill="#F7967E"/>
<path d="M120.636 147.941C120.74 148.699 121.949 149.386 122.636 148.736C122.636 148.736 126.42 145.858 126.864 145.602C127.306 145.345 127.069 144.697 125.445 144.647C124.565 144.618 123.302 144.146 123.302 144.146C123.302 144.146 121.428 143.452 121.084 143.32L119.037 147.412C119.037 147.412 118.75 147.349 118.229 147.235C118.429 147.302 118.667 147.36 118.948 147.405L120.636 147.941Z" fill="#F7967E"/>
<path d="M9.32853 148.995C9.83987 148.995 15.1624 148.978 15.1624 148.978C16.1079 148.995 16.349 147.746 15.9129 147.117C15.6869 146.792 15.7067 146.682 15.6803 145.901L11.0151 146.013C11.1338 146.659 10.6121 147.068 10.0772 147.458C8.76444 148.415 8.81624 148.995 9.32853 148.995Z" fill="#F7967E"/>
<rect x="176" y="52.6279" width="42.3097" height="75.5205" rx="2.27471" transform="rotate(90.6561 176 52.6279)" fill="#FEC108"/>
<rect x="172.319" y="56.2256" width="35.0306" height="57.3228" rx="2.27471" transform="rotate(90.6561 172.319 56.2256)" fill="white"/>
<circle cx="107.518" cy="73.2275" r="3.63954" transform="rotate(90.6561 107.518 73.2275)" fill="white"/>
<path d="M142.845 57.3779C142.844 57.3779 142.844 57.3779 142.844 57.3779C142.721 57.5113 142.626 57.668 142.555 57.8404L142.57 57.8959C142.631 57.6869 142.726 57.5157 142.845 57.3779Z" fill="#111C23"/>
<path d="M145.742 59.5574C145.563 60.2829 145.126 60.8593 144.301 60.9016L144.01 62.5813C144.09 62.6394 144.171 62.6994 144.251 62.761C145.123 62.7513 146.152 62.5056 146.896 61.5977C145.993 60.8348 146.23 59.3431 146.047 58.5528C145.944 58.1073 145.837 57.8681 145.671 57.6731C145.914 58.0674 146.018 58.6902 145.742 59.5574Z" fill="#111C23"/>
<path d="M132.356 70.1072L133.93 69.2295C134.16 68.9302 134.563 68.4078 135.065 67.7722C135.246 67.5289 135.436 67.2703 135.621 67.033V67.0326C135.628 67.0237 135.635 67.0149 135.642 67.0052C135.649 66.998 135.655 66.9899 135.66 66.9822L135.661 66.9826C136.156 66.3575 137.695 64.48 137.695 64.48L132.354 70.1089L132.356 70.1072Z" fill="#F57C79"/>
<path d="M135.643 67.0042C135.648 66.9972 135.654 66.9899 135.66 66.9826L135.66 66.9822C135.654 66.9895 135.648 66.9972 135.643 67.0042Z" fill="#C39DD5"/>
<path d="M134.841 68.0694L143.52 71.5324L143.539 71.5396C143.539 71.5396 143.888 70.6893 144.031 70.2683L135.621 67.033C135.436 67.2702 135.246 67.5288 135.065 67.7721C134.988 67.8752 134.913 67.9755 134.841 68.0694Z" fill="#C39DD5"/>
<path d="M133.72 69.5037L132.794 70.8345L142.924 74.8183L142.901 73.2135L133.72 69.5037Z" fill="#C39DD5"/>
<path d="M144.266 60.9032C144.106 60.9084 143.931 60.8939 143.742 60.8569C143.458 60.8009 143.244 60.6889 143.084 60.5459C143.116 60.7155 143.154 60.8875 143.196 61.051C143.322 61.0059 143.459 60.9797 143.602 60.9733C143.943 60.958 144.151 60.9535 144.266 60.9032Z" fill="#F57C79"/>
<path d="M142.807 58.8115C142.918 58.8465 143.008 58.9199 143.067 59.0137C143.146 58.963 143.273 58.9195 143.472 58.9118C143.786 58.8993 144.477 58.7007 144.745 58.3019C144.863 58.7676 145.72 59.3126 145.742 59.5575C146.018 58.6903 145.914 58.0675 145.671 57.6732C145.477 57.3578 145.193 57.1886 144.944 57.1588C144.556 56.8228 143.425 56.7012 142.845 57.3779C142.727 57.5157 142.631 57.6869 142.57 57.8959L142.807 58.8115Z" fill="#111C23"/>
<path d="M143.583 61.9419C143.438 61.8239 143.303 61.465 143.196 61.0513C143.153 60.8878 143.116 60.7158 143.084 60.5462C143.016 60.1937 142.973 59.8533 142.964 59.6282C142.859 59.7136 142.718 59.753 142.575 59.7252C142.319 59.6753 142.152 59.4272 142.203 59.1718C142.252 58.916 142.501 58.7488 142.757 58.7988C142.774 58.8024 142.791 58.8068 142.807 58.8117L142.57 57.8961L142.555 57.8405V57.8401C141.798 59.2624 141.924 60.806 142.054 61.5383C142.054 61.5383 142.164 61.6507 142.351 61.7663C142.392 61.7913 142.436 61.8166 142.484 61.8408C142.762 61.9822 143.151 62.0905 143.583 61.9419Z" fill="#111C23"/>
<path d="M145.179 59.6511C145.129 59.6415 145.081 59.6737 145.072 59.7232C145.062 59.7732 145.094 59.8211 145.144 59.8308C145.193 59.8404 145.242 59.8082 145.251 59.7587C145.261 59.7091 145.229 59.6608 145.179 59.6511Z" fill="#310D06"/>
<path d="M143.455 59.4466C143.448 59.4965 143.482 59.5432 143.532 59.5509C143.582 59.5585 143.628 59.5239 143.636 59.4739C143.644 59.424 143.609 59.3773 143.559 59.3696C143.51 59.3624 143.463 59.3966 143.455 59.4466Z" fill="#310D06"/>
<path d="M145.139 60.4091C145.273 60.4325 145.401 60.3427 145.424 60.2081C145.448 60.074 145.357 59.9463 145.223 59.9225C145.089 59.8996 144.961 59.9894 144.937 60.1239C144.914 60.2581 145.004 60.3858 145.139 60.4091Z" fill="#F57C79"/>
<path d="M143.648 59.9004C143.672 59.7658 143.582 59.6381 143.447 59.6148C143.313 59.5914 143.185 59.6816 143.162 59.8158C143.139 59.9503 143.228 60.0776 143.363 60.101C143.497 60.1243 143.625 60.0345 143.648 59.9004Z" fill="#F57C79"/>
<path d="M144.287 59.9932C144.331 60.0182 144.386 60.0271 144.438 60.0235C144.475 60.0214 144.512 60.013 144.536 59.9912C144.558 59.9711 144.566 59.9437 144.573 59.9171C144.619 59.752 144.627 59.5723 144.602 59.3995C144.597 59.358 144.583 59.3089 144.536 59.2907C144.509 59.2807 144.478 59.2839 144.454 59.2948C144.43 59.3056 144.411 59.3234 144.394 59.3415C144.278 59.4724 144.249 59.6766 144.216 59.8361L144.216 59.8378C144.203 59.8958 144.221 59.9562 144.287 59.9932Z" fill="#F57C79"/>
<path d="M127.172 74.447C127.041 75.1556 126.851 76.0353 126.626 77.0069C126.627 77.0077 131.994 80.5903 135.361 80.7417C135.296 80.7127 135.232 80.6833 135.168 80.6539C130.758 78.6121 127.172 74.447 127.172 74.447Z" fill="#FFBC0F"/>
<path d="M144.031 70.2682L144.291 69.4372C143.66 67.403 145.003 63.3874 145.003 63.3874C145.003 63.3874 145 63.3838 144.993 63.3781C144.956 63.3463 144.831 63.2363 144.733 63.1526C144.711 63.1344 144.691 63.1175 144.674 63.1026C143.094 65.6834 142.999 66.4616 141.554 65.677C140.109 64.8919 140.71 64.3884 142.016 61.6593C141.996 61.6537 141.972 61.6464 141.947 61.6388C141.818 61.6005 141.644 61.551 141.606 61.5405C141.601 61.5389 141.598 61.5381 141.598 61.5381L137.897 64.3271L137.695 64.4798C137.695 64.4798 136.156 66.3573 135.661 66.9825C135.655 66.9901 135.648 66.9978 135.642 67.005C135.635 67.0147 135.628 67.0236 135.621 67.0324V67.0328L144.031 70.2682Z" fill="#005EB8"/>
<path d="M159.399 82.8171C157.353 81.7907 155.478 80.8518 154.402 80.3184C151.133 78.6975 142.925 74.8185 142.925 74.8185L132.794 70.8347C132.794 70.8347 132.324 70.6961 131.586 70.5003C130.968 70.3368 130.163 70.1338 129.289 69.9388C127.173 69.4667 124.654 69.0438 123.414 69.3511C123.413 69.3515 123.413 69.3519 123.412 69.3519C122.409 69.4381 121.525 70.0516 121.211 71.3386C121.206 71.3563 121.202 71.374 121.197 71.3922C121.172 71.5045 121.151 71.6222 121.134 71.7446C121.132 71.7623 121.129 71.7797 121.127 71.797C121.111 71.9219 121.101 72.052 121.095 72.1873C121.094 72.1966 121.094 72.2058 121.093 72.2155C120.863 78.1392 121.619 88.6474 121.619 88.6474L123.614 88.5998C123.614 88.5998 125.533 81.721 126.626 77.0069C126.851 76.0354 127.041 75.1556 127.172 74.4467C127.172 74.4467 130.758 78.6121 135.168 80.654C135.256 80.6673 135.341 80.679 135.424 80.6874C135.755 80.9927 136.214 81.2739 136.83 81.5297C141.036 83.2787 149.885 85.1578 151.701 85.6122C154.359 86.2772 165.383 88.7086 167.479 89.1702C167.702 89.2194 167.825 89.2463 167.825 89.2463L168.701 87.4957C168.701 87.4957 164.135 85.1953 160.001 83.1196C159.799 83.0185 159.598 82.9174 159.399 82.8171Z" fill="#005EB8"/>
<path d="M145.509 59.479C145.448 59.3739 145.332 59.3344 145.223 59.303C145.192 59.2945 145.16 59.286 145.126 59.2921C145.058 59.3042 144.99 59.4113 145.034 59.475C145.054 59.5024 145.084 59.5152 145.114 59.5273C145.159 59.5455 145.203 59.5636 145.248 59.5817C145.292 59.5994 145.336 59.6172 145.38 59.6349C145.42 59.651 145.471 59.6643 145.506 59.628C145.525 59.6083 145.533 59.5781 145.533 59.5515C145.532 59.5459 145.531 59.5406 145.531 59.535C145.527 59.5148 145.519 59.4959 145.509 59.479Z" fill="#091013"/>
<path d="M143.73 59.0496C143.701 59.0327 143.667 59.0303 143.635 59.0279C143.521 59.0198 143.399 59.0182 143.306 59.0967C143.291 59.1096 143.277 59.1245 143.267 59.1427C143.264 59.1471 143.262 59.1519 143.26 59.1572C143.25 59.1821 143.248 59.2131 143.259 59.2385C143.28 59.2844 143.332 59.2889 143.375 59.2873C143.422 59.2852 143.47 59.2832 143.517 59.2816C143.565 59.2792 143.614 59.2776 143.662 59.2756C143.694 59.274 143.727 59.2724 143.754 59.253C143.818 59.2083 143.789 59.0838 143.73 59.0496Z" fill="#091013"/>
<path d="M144.544 60.2178C144.492 60.2685 144.419 60.2996 144.348 60.2996C144.328 60.2996 144.308 60.2971 144.289 60.2923C144.202 60.2702 144.13 60.1864 144.13 60.099C144.13 60.0857 144.119 60.0752 144.106 60.0752C144.093 60.0752 144.082 60.0861 144.082 60.0994C144.084 60.2126 144.171 60.3104 144.278 60.339C144.301 60.3447 144.324 60.3475 144.348 60.3475C144.432 60.3475 144.516 60.3108 144.577 60.252C144.587 60.2428 144.587 60.2279 144.578 60.2182C144.568 60.2089 144.553 60.2085 144.544 60.2178Z" fill="#A34C39"/>
<path d="M121.196 70.8853C121.193 70.872 121.179 70.8639 121.166 70.8672L119.639 71.2539C119.629 71.2563 119.623 71.2639 119.621 71.2728C119.621 71.2748 119.621 71.2776 119.621 71.28C119.621 71.2813 119.621 71.2825 119.621 71.2837C119.624 71.297 119.638 71.305 119.651 71.3018L121.178 70.9155C121.192 70.9119 121.2 70.8986 121.196 70.8853Z" fill="#BA4642"/>
<path d="M119.784 71.6915C119.784 71.6923 119.784 71.6927 119.784 71.6931C119.785 71.6963 119.786 71.6991 119.788 71.7016C119.794 71.71 119.804 71.714 119.814 71.7116L121.197 71.3926C121.201 71.3741 121.206 71.3563 121.21 71.3386L119.803 71.6637C119.79 71.6665 119.782 71.6786 119.784 71.6915Z" fill="#BA4642"/>
<path d="M120.094 72.0019C120.094 72.0035 120.094 72.0047 120.094 72.0063C120.096 72.0131 120.1 72.0184 120.106 72.022C120.111 72.0252 120.117 72.0264 120.124 72.0248L121.127 71.7968C121.129 71.7795 121.132 71.7622 121.134 71.7449L120.113 71.9765C120.101 71.9793 120.094 71.9902 120.094 72.0019Z" fill="#BA4642"/>
<path d="M159.801 81.4667C159.791 81.457 159.775 81.4566 159.765 81.4663C159.755 81.4755 159.755 81.4913 159.765 81.5013L160.86 82.6336C160.869 82.6437 160.884 82.6437 160.895 82.634C160.895 82.6336 160.895 82.6332 160.895 82.6324C160.898 82.63 160.899 82.6272 160.9 82.6248C160.903 82.6163 160.901 82.6062 160.895 82.5994L159.801 81.4667Z" fill="#BA4642"/>
<path d="M159.48 81.81C159.47 81.8003 159.455 81.8003 159.445 81.81C159.435 81.8197 159.436 81.8354 159.445 81.845L160.505 82.8968C160.513 82.904 160.524 82.9056 160.533 82.9008C160.536 82.8996 160.538 82.8984 160.54 82.8968C160.541 82.896 160.541 82.8956 160.541 82.8952C160.55 82.8855 160.549 82.8706 160.54 82.8617L159.48 81.81Z" fill="#BA4642"/>
<path d="M159.156 82.0239C159.147 82.0138 159.131 82.0138 159.121 82.0239C159.112 82.0336 159.112 82.0493 159.122 82.059L160.077 82.9999C160.082 83.0044 160.088 83.0068 160.094 83.0068C160.1 83.0068 160.107 83.0044 160.112 82.9995C160.113 82.9983 160.113 82.9971 160.114 82.9963C160.121 82.9866 160.12 82.9733 160.112 82.9645L159.156 82.0239Z" fill="#BA4642"/>
<path d="M142.878 59.4262C142.725 59.3573 142.69 59.2192 142.689 59.1156C142.689 59.1011 142.677 59.0895 142.662 59.0899C142.648 59.0903 142.637 59.1019 142.637 59.1164C142.638 59.1865 142.653 59.2707 142.701 59.3444L142.51 59.3432C142.496 59.3432 142.484 59.3549 142.484 59.3694C142.484 59.3819 142.493 59.3932 142.505 59.3952H142.51L142.743 59.3964C142.773 59.4262 142.81 59.4528 142.857 59.4737L142.868 59.4786C142.878 59.4802 142.889 59.477 142.895 59.4685C142.903 59.4568 142.902 59.4415 142.891 59.433C142.889 59.4318 142.885 59.4294 142.878 59.4262Z" fill="#BA4642"/>
<path d="M121.179 70.9155L119.651 71.3018C119.639 71.305 119.625 71.2969 119.622 71.2837C119.621 71.2824 119.622 71.2812 119.621 71.28C119.51 71.299 119.441 71.4464 119.489 71.5531C119.538 71.6595 119.668 71.7094 119.784 71.6913C119.782 71.6784 119.79 71.6663 119.803 71.6635L121.211 71.3384C121.524 70.0515 122.409 69.438 123.412 69.3518C123.412 69.3518 123.413 69.3514 123.414 69.351C124.654 69.0436 127.173 69.4666 129.289 69.9387C130.163 70.1336 130.968 70.3371 131.586 70.5006C131.701 70.4543 131.818 70.3995 131.938 70.335C131.938 70.3346 131.939 70.3346 131.939 70.3342C131.94 70.3338 131.941 70.333 131.942 70.3326C132.077 70.2601 132.214 70.1856 132.354 70.1087L137.696 64.4798L137.898 64.3271L141.599 61.5381C141.538 61.5211 141.479 61.5046 141.422 61.4893C141.373 61.476 141.326 61.4659 141.28 61.4583C139.381 60.8859 137.971 60.7062 135.676 62.2857C135.676 62.2857 132.623 64.4206 130.191 66.342C127.844 66.9381 120.843 69.9536 120.512 70.0047C120.443 70.0152 120.372 70.0273 120.312 70.0635C120.253 70.1002 120.206 70.1671 120.215 70.2363C120.23 70.3685 120.403 70.4039 120.536 70.4055C120.805 70.4092 120.996 70.4116 120.996 70.4116C120.996 70.4116 120.297 70.6504 119.801 70.8494C119.703 70.8889 119.599 70.9364 119.548 71.0291C119.502 71.1141 119.534 71.2442 119.622 71.2728C119.624 71.2639 119.63 71.2563 119.639 71.2538L121.167 70.8671C121.18 70.8639 121.193 70.872 121.197 70.8853C121.2 70.8986 121.192 70.9119 121.179 70.9155Z" fill="#F7967E"/>
<path d="M120.176 72.2182C120.248 72.2637 120.338 72.2649 120.423 72.2637C120.494 72.2633 120.733 72.2355 121.094 72.1872C121.099 72.0519 121.11 71.9217 121.126 71.7969L120.123 72.0249C120.117 72.0265 120.11 72.0253 120.105 72.022C120.074 72.0877 120.112 72.1775 120.176 72.2182Z" fill="#F7967E"/>
<path d="M121.134 71.745C121.15 71.6222 121.172 71.5046 121.197 71.3926L119.814 71.7116C119.804 71.714 119.794 71.71 119.788 71.7015C119.717 71.7571 119.736 71.8917 119.814 71.9485C119.892 72.0061 119.995 72.0073 120.094 72.002C120.093 71.9903 120.101 71.9795 120.113 71.9767L121.134 71.745Z" fill="#F7967E"/>
<path d="M135.065 67.772C134.563 68.4076 134.16 68.9301 133.93 69.2293L132.356 70.1071C132.857 69.8332 133.391 69.5347 133.93 69.2297C133.796 69.4046 133.72 69.5037 133.72 69.5037L142.901 73.2135C142.901 73.2135 143.164 72.5352 143.52 71.5322L134.841 68.0692C134.913 67.9754 134.988 67.8751 135.065 67.772Z" fill="#F7967E"/>
<path d="M144.794 63.2048C144.877 63.2769 144.964 63.3523 144.993 63.378C144.929 63.3221 144.862 63.264 144.794 63.2048Z" fill="#F7967E"/>
<path d="M141.606 61.5405C141.635 61.549 141.75 61.5812 141.861 61.6138C141.774 61.5881 141.688 61.5635 141.606 61.5405Z" fill="#F7967E"/>
<path d="M141.862 61.6138C141.891 61.6222 141.919 61.6303 141.948 61.6387C141.921 61.6307 141.891 61.6222 141.862 61.6138Z" fill="#F7967E"/>
<path d="M151.297 75.8065C152.1 76.7302 157.964 81.6735 159.399 82.817C159.598 82.9173 159.799 83.0184 160.001 83.1195C160.05 83.0982 160.089 83.0563 160.094 83.0068C160.088 83.0068 160.082 83.0043 160.077 82.9999L159.122 82.0589C159.112 82.0493 159.112 82.0336 159.122 82.0239C159.131 82.0138 159.147 82.0138 159.157 82.0235L160.112 82.9645C160.121 82.9729 160.121 82.9866 160.115 82.9959C160.196 83.0519 160.284 83.1058 160.381 83.0982C160.477 83.0905 160.566 82.9854 160.534 82.9008C160.525 82.9052 160.513 82.904 160.505 82.8964L159.446 81.845C159.436 81.8354 159.436 81.8197 159.445 81.81C159.455 81.8003 159.471 81.8003 159.481 81.81L160.541 82.8613C160.55 82.8706 160.55 82.8851 160.542 82.8952C160.631 82.9717 160.768 82.9975 160.865 82.9326C160.963 82.8678 160.98 82.7075 160.896 82.6325C160.896 82.6334 160.895 82.6338 160.895 82.6342C160.885 82.6438 160.869 82.6434 160.86 82.6338L159.765 81.5015C159.756 81.4914 159.756 81.4757 159.766 81.4664C159.775 81.4567 159.791 81.4571 159.801 81.4668L160.896 82.5995C160.902 82.6064 160.904 82.6164 160.901 82.6249C160.989 82.6466 161.086 82.5532 161.091 82.4565C161.097 82.351 161.034 82.2555 160.971 82.1705C160.655 81.7403 160.186 81.1695 160.186 81.1695C160.186 81.1695 160.35 81.2678 160.58 81.4064C160.694 81.4749 160.859 81.5357 160.943 81.4318C160.986 81.3774 160.982 81.296 160.95 81.2336C160.919 81.1711 160.865 81.1236 160.811 81.0781C160.558 80.8606 154.24 72.9643 154.24 72.9643C154.24 72.9643 147.256 64.5898 145.004 63.3875C145.004 63.3875 143.661 67.4027 144.292 69.4373C145.813 71.1549 150.406 74.7838 151.297 75.8065Z" fill="#F7967E"/>
<path d="M144.082 60.0991C144.082 60.0858 144.093 60.0749 144.106 60.0749C144.119 60.0749 144.13 60.0854 144.13 60.0987C144.13 60.1861 144.203 60.2699 144.29 60.292C144.309 60.2969 144.328 60.2993 144.348 60.2993C144.419 60.2993 144.492 60.2683 144.544 60.2175C144.554 60.2083 144.568 60.2087 144.578 60.2179C144.587 60.2276 144.587 60.2425 144.577 60.2518C144.516 60.3106 144.433 60.3472 144.348 60.3472C144.324 60.3472 144.301 60.3444 144.278 60.3388C144.171 60.3102 144.084 60.2123 144.082 60.0991ZM143.755 59.2528C143.728 59.2721 143.694 59.2737 143.662 59.2754C143.614 59.2774 143.566 59.279 143.518 59.2814C143.47 59.283 143.423 59.285 143.376 59.287C143.333 59.2886 143.28 59.2842 143.26 59.2383C143.248 59.2129 143.25 59.1819 143.261 59.1569C143.263 59.1517 143.265 59.1469 143.267 59.1424C143.277 59.1243 143.292 59.1094 143.306 59.0965C143.399 59.018 143.522 59.0196 143.636 59.0276C143.668 59.03 143.701 59.0325 143.73 59.0494C143.79 59.0836 143.819 59.2081 143.755 59.2528ZM143.455 59.4465C143.463 59.3966 143.51 59.3624 143.559 59.3696C143.609 59.3773 143.644 59.424 143.636 59.4739C143.629 59.5239 143.582 59.5585 143.532 59.5509C143.482 59.5432 143.448 59.4965 143.455 59.4465ZM143.648 59.9001C143.625 60.0342 143.497 60.1241 143.363 60.1007C143.228 60.0773 143.138 59.9501 143.162 59.8155C143.185 59.6814 143.313 59.5912 143.447 59.6145C143.582 59.6379 143.672 59.7656 143.648 59.9001ZM144.216 59.8377L144.216 59.8361C144.25 59.6766 144.278 59.4723 144.395 59.3414C144.411 59.3233 144.43 59.3056 144.454 59.2947C144.478 59.2838 144.51 59.2806 144.536 59.2907C144.583 59.3088 144.597 59.3579 144.603 59.3994C144.628 59.5722 144.619 59.7519 144.574 59.917C144.566 59.9436 144.558 59.971 144.537 59.9911C144.512 60.0129 144.475 60.0214 144.439 60.0234C144.387 60.027 144.332 60.0181 144.287 59.9932C144.221 59.9561 144.203 59.8957 144.216 59.8377ZM142.896 59.4683C142.89 59.4768 142.879 59.48 142.869 59.4784L142.857 59.4735C142.811 59.4526 142.773 59.426 142.744 59.3962L142.51 59.395H142.506C142.494 59.393 142.484 59.3817 142.484 59.3692C142.484 59.3547 142.496 59.343 142.51 59.343L142.701 59.3442C142.653 59.2705 142.639 59.1863 142.637 59.1162C142.637 59.1017 142.649 59.0901 142.663 59.0897C142.677 59.0893 142.689 59.1009 142.689 59.1154C142.691 59.219 142.725 59.3571 142.879 59.426C142.885 59.4292 142.89 59.4316 142.892 59.4329C142.903 59.4413 142.904 59.4566 142.896 59.4683ZM144.937 60.1237C144.961 59.9891 145.089 59.8993 145.223 59.9223C145.358 59.946 145.448 60.0737 145.424 60.2079C145.401 60.3424 145.273 60.4322 145.139 60.4089C145.004 60.3855 144.914 60.2578 144.937 60.1237ZM145.252 59.7583C145.242 59.8079 145.194 59.8401 145.144 59.8304C145.095 59.8208 145.062 59.7728 145.072 59.7229C145.082 59.6733 145.13 59.6411 145.179 59.6508C145.229 59.6604 145.261 59.7088 145.252 59.7583ZM145.127 59.2919C145.16 59.2858 145.192 59.2943 145.223 59.3027C145.333 59.3342 145.449 59.3736 145.51 59.4788C145.519 59.4957 145.528 59.5146 145.531 59.5348C145.532 59.5404 145.533 59.5456 145.533 59.5513C145.534 59.5779 145.526 59.6081 145.507 59.6278C145.471 59.6641 145.42 59.6508 145.38 59.6347C145.337 59.6169 145.293 59.5992 145.249 59.5815C145.204 59.5634 145.159 59.5452 145.115 59.5271C145.085 59.515 145.054 59.5021 145.035 59.4747C144.99 59.4111 145.059 59.304 145.127 59.2919ZM142.484 61.8405C142.437 61.8163 142.392 61.7909 142.351 61.7659C142.239 61.7285 142.127 61.6926 142.017 61.6592C140.71 64.3882 140.109 64.8917 141.554 65.6768C142.999 66.4615 143.095 65.6833 144.674 63.1025C144.539 62.9881 144.396 62.872 144.251 62.7609C144.172 62.6992 144.091 62.6392 144.01 62.5812L144.302 60.9015C145.126 60.8592 145.564 60.2828 145.742 59.5573C145.72 59.3124 144.864 58.7674 144.746 58.3018C144.477 58.7005 143.786 58.8991 143.472 58.9116C143.273 58.9193 143.146 58.9628 143.067 59.0135C143.009 58.9197 142.919 58.8464 142.807 58.8113C142.791 58.8065 142.774 58.802 142.757 58.7984C142.501 58.7485 142.253 58.9156 142.203 59.1714C142.153 59.4268 142.32 59.6749 142.575 59.7249C142.718 59.7527 142.859 59.7132 142.964 59.6278C142.973 59.853 143.016 60.1934 143.084 60.5458C143.244 60.6888 143.458 60.8008 143.742 60.8568C143.932 60.8938 144.106 60.9083 144.266 60.9031C144.152 60.9535 143.943 60.9579 143.602 60.9732C143.459 60.9796 143.323 61.0058 143.196 61.0509C143.303 61.4646 143.438 61.8235 143.584 61.9416C143.151 62.0902 142.762 61.9818 142.484 61.8405Z" fill="#F7967E"/>
<path d="M168.509 89.4722C168.553 89.7965 169.07 90.0905 169.364 89.8122C169.364 89.8122 170.983 88.5812 171.172 88.4716C171.361 88.3621 171.26 88.0845 170.565 88.0632C170.189 88.0511 169.649 87.8489 169.649 87.8489C169.649 87.8489 168.847 87.552 168.7 87.4956L167.824 89.2462C167.824 89.2462 167.702 89.2192 167.479 89.1701C167.564 89.1991 167.666 89.2237 167.786 89.243L168.509 89.4722Z" fill="#F7967E"/>
<path d="M120.898 89.9235C121.116 89.9235 123.393 89.9162 123.393 89.9162C123.797 89.9235 123.901 89.389 123.714 89.1199C123.617 88.9809 123.626 88.9342 123.615 88.5999L121.619 88.6478C121.67 88.9241 121.447 89.0989 121.218 89.2657C120.656 89.6754 120.678 89.9235 120.898 89.9235Z" fill="#F7967E"/>
<circle cx="174" cy="69.7632" r="1" fill="#B38808"/>
<defs>
<linearGradient id="paint0_linear_469_2860" x1="170.5" y1="68.7632" x2="60" y2="147.763" gradientUnits="userSpaceOnUse">
<stop stop-color="#79AFE0"/>
<stop offset="1" stop-color="white" stop-opacity="0"/>
</linearGradient>
</defs>
</svg>
