<svg width="180" height="180" viewBox="0 0 180 180" fill="none" xmlns="http://www.w3.org/2000/svg">
<path fill-rule="evenodd" clip-rule="evenodd" d="M87.1094 42.0049C99.951 42.1051 112.282 44.7797 122.723 52.2565C135.562 61.4507 149.311 72.1865 151.157 87.8699C153.139 104.708 144.62 121.417 132.226 132.986C120.208 144.204 103.518 148.652 87.1094 147.654C71.6838 146.715 57.5325 139.275 47.1694 127.81C37.3273 116.922 32.3439 102.529 33.0694 87.8699C33.7604 73.9065 40.2773 60.7432 50.9362 51.6967C60.8301 43.2996 74.1329 41.9037 87.1094 42.0049Z" fill="#DEEAF6"/>
<path d="M67.1111 139.949C71.3165 138.854 74.1931 135.237 74.5458 131.14C74.6167 130.316 73.8603 129.663 73.0589 129.872L57.0049 134.051C56.2035 134.26 55.8612 135.198 56.3253 135.884C58.6308 139.288 62.9058 141.043 67.1111 139.949Z" fill="#FFB30F"/>
<path d="M98.5563 111.09L95.0187 107.51C91.2229 103.667 88.5075 98.8907 87.1468 93.6638L84.5513 83.6935C80.8136 69.3358 67.6209 59.9582 53.3865 60.4817L53.1465 59.56C52.2087 55.9575 48.5292 53.798 44.9277 54.7356C41.3262 55.6732 39.1667 59.3527 40.1045 62.9552L40.3445 63.8769C27.6607 70.361 20.7153 84.9811 24.453 99.3388L27.0486 109.309C28.4093 114.536 28.3677 120.03 26.9274 125.236L25.5858 130.087C24.1309 134.152 27.8205 138.186 31.9981 137.098L96.3768 120.338C100.553 119.251 101.808 113.93 98.5563 111.09Z" fill="#FFC50F"/>
<path d="M112.407 121.344C113.447 128.984 110.047 136.363 104.021 140.625C103.277 141.152 102.238 140.906 101.775 140.121L101.654 139.914C101.238 139.205 101.443 138.304 102.113 137.828C107.096 134.288 109.911 128.177 109.064 121.841C108.956 121.028 109.478 120.266 110.278 120.088L110.508 120.037C111.399 119.841 112.285 120.439 112.407 121.344Z" fill="#79AFE0"/>
<path d="M105.79 122.913C106.189 127.527 104.184 131.927 100.685 134.679C99.9265 135.276 98.8185 135.092 98.3287 134.26L98.2145 134.064C97.8047 133.37 98.0025 132.499 98.6336 131.998C101.239 129.924 102.725 126.641 102.423 123.189C102.354 122.414 102.905 121.719 103.664 121.551L103.879 121.503C104.809 121.299 105.71 121.961 105.79 122.913Z" fill="#79AFE0"/>
<path d="M7.15139 78.107C6.98992 70.3981 11.2095 63.4605 17.6842 59.9189C18.4832 59.4809 19.4886 59.8438 19.8572 60.6779L19.9549 60.8971C20.2879 61.6483 19.9801 62.5197 19.262 62.9155C13.9062 65.8598 10.4119 71.6054 10.5303 77.9976C10.545 78.8182 9.94005 79.5144 9.12526 79.5986L8.88932 79.6227C7.98258 79.7156 7.17105 79.0194 7.15139 78.107Z" fill="#79AFE0"/>
<path d="M13.904 77.3079C14.0364 72.6793 16.5297 68.5396 20.3196 66.2089C21.1425 65.7025 22.221 66.0132 22.6135 66.8954L22.7053 67.1028C23.0318 67.8401 22.7358 68.681 22.0524 69.107C19.2263 70.8677 17.3754 73.9589 17.2825 77.422C17.2611 78.1992 16.6347 78.8269 15.8625 78.9059L15.6434 78.9287C14.6951 79.0265 13.8774 78.2633 13.904 77.3079Z" fill="#79AFE0"/>
<rect x="95.25" y="57.25" width="73.9308" height="44.5" rx="9.75" fill="#FFF8E3" stroke="#79AFE0" stroke-width="0.5"/>
<rect x="100.677" y="68" width="61.1846" height="14" rx="2" fill="#BFDBF5"/>
<rect x="102.819" y="72.25" width="73.9308" height="44.5" rx="9.75" fill="#FFF8E3" stroke="#79AFE0" stroke-width="0.5"/>
<rect x="109.508" y="84" width="61.1846" height="4" rx="2" fill="#BFDBF5"/>
<rect x="109.508" y="91" width="61.1846" height="15" rx="2" fill="#BFDBF5"/>
<circle cx="46" cy="48.5" r="2.5" fill="#79AFE0"/>
<circle cx="77.5" cy="155.5" r="5.5" fill="#79AFE0"/>
<circle cx="148.5" cy="129.5" r="4.5" fill="#DEEAF6"/>
<circle cx="133" cy="42" r="7" fill="#DEEAF6"/>
<circle cx="83" cy="36" r="18" fill="#79AFE0"/>
<mask id="mask0_394_1514" style="mask-type:alpha" maskUnits="userSpaceOnUse" x="65" y="18" width="36" height="36">
<rect x="65" y="18" width="36" height="36" fill="#D9D9D9"/>
</mask>
<g mask="url(#mask0_394_1514)">
<path d="M83.0002 47.3625C82.3502 47.3625 81.7942 47.131 81.3322 46.6679C80.8692 46.2059 80.6377 45.65 80.6377 45V38.3625H74.0002C73.3502 38.3625 72.7942 38.131 72.3322 37.668C71.8692 37.206 71.6377 36.65 71.6377 36C71.6377 35.35 71.8692 34.7935 72.3322 34.3305C72.7942 33.8685 73.3502 33.6375 74.0002 33.6375H80.6377V27C80.6377 26.35 80.8692 25.7935 81.3322 25.3305C81.7942 24.8685 82.3502 24.6375 83.0002 24.6375C83.6502 24.6375 84.2067 24.8685 84.6697 25.3305C85.1317 25.7935 85.3627 26.35 85.3627 27V33.6375H92.0002C92.6502 33.6375 93.2067 33.8685 93.6697 34.3305C94.1317 34.7935 94.3627 35.35 94.3627 36C94.3627 36.65 94.1317 37.206 93.6697 37.668C93.2067 38.131 92.6502 38.3625 92.0002 38.3625H85.3627V45C85.3627 45.65 85.1317 46.2059 84.6697 46.6679C84.2067 47.131 83.6502 47.3625 83.0002 47.3625Z" fill="white"/>
</g>
</svg>
