<svg width="1920" height="1080" viewBox="0 0 1920 1080" fill="none" xmlns="http://www.w3.org/2000/svg">
<rect width="1920" height="1080" fill="#D7D7D7"/>
<path d="M938.156 231.016C938.156 255.894 937.062 280.977 939.712 305.719C942.634 333.021 949.971 362.454 948.776 389.76C947.513 418.612 944.803 447.741 941.93 476.469C940.225 493.525 935.854 509.805 938.978 527.16C940.436 535.26 943.943 553.501 951.935 557.686C957.216 560.45 967.524 556.128 972.84 554.604C993.959 548.551 1019.1 534.755 1026.2 512.486C1014 507.077 997.321 498.035 992.32 484.473C989.274 476.211 991.516 463.875 991.516 455.125L1009.61 452.801L1013.66 431.397L1024.87 423.109C1022.66 415.47 1017.55 409.224 1015.13 401.766C1010.19 386.573 1011 375.086 994.183 367.082L990.182 372.418C990.182 339.358 981.004 306.697 980.845 273.703C980.785 261.248 982.719 240.809 970.656 232.387C963.895 227.667 946.245 231.016 938.156 231.016Z" fill="#ADADAD"/>
<path d="M990.182 365.748V372.418H991.516L990.182 365.748Z" fill="#545454"/>
<path d="M992.85 368.416L994.184 369.75L992.85 368.416Z" fill="#9E9E9E"/>
<path d="M863.453 497.812C874.305 497.812 887.917 500.011 898.137 495.834C926.665 484.175 916.812 436.961 916.812 412.438L927.484 409.77C927.754 422.779 932.568 443.082 944.826 449.789C944.826 424.798 953.297 395.457 947.494 371.084C941.915 373.681 937.751 379.251 931.486 380.224C917.057 382.468 900.343 376.249 887.466 385.29C863.27 402.275 876.471 445.812 873.985 471.133C873.048 480.665 866.077 488.704 863.453 497.812Z" fill="#545454"/>
<path d="M947.938 371.974L948.384 372.862L947.938 371.974ZM1007.52 377.754L1008.86 379.088L1007.52 377.754ZM947.494 391.094V396.43H948.828L947.494 391.094ZM946.16 411.104V416.439H947.494L946.16 411.104ZM944.826 431.113V436.449H946.16L944.826 431.113ZM943.492 449.789L944.826 451.123L943.492 449.789ZM1026.2 512.486C1012.34 541.779 981.211 553.413 951.496 559.176L966.876 581.816L986.18 583.187H1034.2C1034.34 571.825 1043.08 569.882 1047.66 560.508C1056.95 541.443 1047.09 517.493 1026.2 512.486Z" fill="#9E9E9E"/>
<path d="M1046.21 527.16L1047.54 528.494L1046.21 527.16ZM1050.21 540.5L1051.54 541.834L1050.21 540.5ZM1048.88 555.174L1050.21 556.508L1048.88 555.174ZM1038.21 569.848L1039.54 571.182L1038.21 569.848ZM960.834 573.85L962.168 575.184L960.834 573.85ZM967.504 583.188L978.517 605.865L970.172 636.547H1034.2V583.188H967.504Z" fill="#ADADAD"/>
<path d="M1154.26 627.209V628.543H1158.26L1154.26 627.209Z" fill="#9E9E9E"/>
<path d="M820.766 801.961V849.984H888.799C902.06 849.984 915.632 851.16 927.484 844.009C940.291 836.283 948.145 821.827 956.645 809.965C972.877 787.311 989.069 764.627 1005.24 741.932C1011.38 733.318 1017.83 719.581 1026.44 713.388C1033.94 708.006 1054.02 708.978 1063.55 706.781C1094.65 699.607 1133.67 693.233 1162.27 679.234V764.609H1208.96C1208.98 730.153 1227.15 678.854 1205.44 648.553C1187.88 624.046 1160.47 627.156 1134.25 629.65C1098.85 633.02 1061.75 636.49 1026.2 636.547C1009.09 636.575 977.553 630.484 963.503 641.173C949.814 651.588 938.929 667.12 937.054 684.57C936.106 693.387 939.127 704.192 936.297 712.584C929.34 733.202 910.978 754.16 899.404 772.613C895.062 779.537 890.502 790.996 883.324 795.307C877.895 798.567 870.805 797.627 864.787 798.339C850.301 800.055 835.359 801.952 820.766 801.961Z" fill="#666666"/>
<path d="M1168.94 627.209L1170.27 628.543L1168.94 627.209ZM1134.25 628.543V629.877H1138.25L1134.25 628.543ZM1176.94 628.543L1178.27 629.877L1176.94 628.543ZM1114.24 629.877V631.211H1118.24L1114.24 629.877ZM1180.94 629.877L1182.28 631.211L1180.94 629.877ZM1094.23 631.211V632.545H1098.23L1094.23 631.211ZM1074.22 632.545V633.879H1078.22L1074.22 632.545ZM1054.21 633.879V635.213H1058.21L1054.21 633.879ZM1188.95 633.879L1190.28 635.213L1188.95 633.879ZM1034.2 635.213V636.547H1038.21L1034.2 635.213ZM1191.61 635.213L1192.95 636.547L1191.61 635.213ZM967.504 636.547L968.838 637.881L967.504 636.547ZM966.17 637.881L967.504 639.215L966.17 637.881ZM1195.62 637.881L1196.95 639.215L1195.62 637.881ZM964.836 639.215L966.17 640.549L964.836 639.215ZM1196.95 639.215L1198.28 640.549L1196.95 639.215ZM962.168 640.549L963.502 641.883L962.168 640.549ZM1198.28 640.549L1199.62 641.883L1198.28 640.549ZM960.834 641.883L962.168 643.217L960.834 641.883ZM1199.62 641.883L1200.95 643.217L1199.62 641.883ZM959.5 643.217L960.834 644.551L959.5 643.217ZM1200.95 643.217L1202.29 644.551L1200.95 643.217ZM958.166 644.551L959.5 645.885L958.166 644.551ZM1202.29 644.551L1203.62 645.885L1202.29 644.551ZM956.832 645.885L958.166 647.219L956.832 645.885ZM1203.62 645.885L1204.95 647.219L1203.62 645.885ZM954.164 647.219L955.498 648.553L954.164 647.219ZM952.83 649.887L954.164 651.221L952.83 649.887ZM1206.29 649.887L1207.62 651.221L1206.29 649.887ZM951.496 651.221L952.83 652.555L951.496 651.221ZM950.162 652.555L951.496 653.889L950.162 652.555ZM1207.62 652.555L1208.96 653.889L1207.62 652.555ZM948.828 653.889L950.162 655.223L948.828 653.889ZM947.494 655.223L948.828 656.557L947.494 655.223ZM1208.96 655.223L1210.29 656.557L1208.96 655.223ZM946.16 657.891L947.494 659.225L946.16 657.891ZM1210.29 657.891L1211.62 659.225L1210.29 657.891ZM945.27 660.114L945.716 661.003L945.27 660.114ZM1211.62 660.559L1212.96 661.893L1211.62 660.559ZM943.492 661.893L944.826 663.227L943.492 661.893ZM942.158 664.561L943.492 665.895L942.158 664.561ZM1213.4 665.45L1213.85 666.339L1213.4 665.45ZM940.824 667.229L942.158 668.562L940.824 667.229ZM939.934 670.786L940.38 671.675L939.934 670.786ZM1214.29 672.564V677.9H1215.62L1214.29 672.564ZM938.6 674.788L939.046 675.677L938.6 674.788ZM937.266 680.124L937.712 681.013L937.266 680.124ZM1160.93 679.234L1162.27 680.568L1160.93 679.234ZM1214.29 679.234L1215.62 680.568L1214.29 679.234ZM1151.59 681.902L1152.93 683.236L1151.59 681.902ZM1214.29 681.902V685.904H1215.62L1214.29 681.902ZM1146.26 683.236L1147.59 684.57L1146.26 683.236ZM935.488 685.904V704.58H936.822L935.488 685.904ZM1136.92 685.904L1138.25 687.238L1136.92 685.904ZM1131.58 687.238L1132.92 688.572L1131.58 687.238ZM1122.25 689.906L1123.58 691.24L1122.25 689.906ZM1116.91 691.24L1118.24 692.574L1116.91 691.24ZM1107.57 693.908L1108.91 695.242L1107.57 693.908ZM1102.24 695.242L1103.57 696.576L1102.24 695.242ZM1092.9 697.91L1094.23 699.244L1092.9 697.91ZM1087.56 699.244L1088.9 700.578L1087.56 699.244ZM1212.96 699.244V703.246H1214.29L1212.96 699.244ZM1078.22 701.912L1079.56 703.246L1078.22 701.912ZM1072.89 703.246L1074.22 704.58L1072.89 703.246ZM1063.55 705.914L1064.88 707.248L1063.55 705.914ZM1058.21 707.248L1059.55 708.582L1058.21 707.248ZM936.822 708.582V712.584H938.156L936.822 708.582ZM1052.43 709.026L1053.32 709.472L1052.43 709.026ZM1043.54 709.916L1044.88 711.25L1043.54 709.916ZM1026.2 711.25L1027.53 712.584L1026.2 711.25ZM935.488 712.584L936.822 713.918L935.488 712.584ZM1024.87 712.584L1026.2 713.918L1024.87 712.584ZM1023.98 714.808L1024.42 715.696L1023.98 714.808ZM934.154 715.252L935.488 716.586L934.154 715.252ZM933.265 717.476L933.71 718.364L933.265 717.476ZM1022.2 716.586L1023.53 717.92L1022.2 716.586ZM1211.62 716.586V720.588H1212.96L1211.62 716.586ZM1020.86 717.92L1022.2 719.254L1020.86 717.92ZM931.486 719.254L932.82 720.588L931.486 719.254ZM1019.53 720.588L1020.86 721.922L1019.53 720.588ZM930.152 721.922L931.486 723.256L930.152 721.922ZM1018.2 721.922L1019.53 723.256L1018.2 721.922ZM928.818 723.256L930.152 724.59L928.818 723.256ZM1016.86 724.59L1018.2 725.924L1016.86 724.59ZM927.484 725.924L928.818 727.258L927.484 725.924ZM1015.53 725.924L1016.86 727.258L1015.53 725.924ZM926.595 728.148L927.04 729.036L926.595 728.148ZM1014.19 727.258L1015.53 728.592L1014.19 727.258ZM924.816 729.926L926.15 731.26L924.816 729.926ZM1012.86 729.926L1014.19 731.26L1012.86 729.926ZM1011.53 731.26L1012.86 732.594L1011.53 731.26ZM923.482 732.594L924.816 733.928L923.482 732.594ZM922.148 733.928L923.482 735.262L922.148 733.928ZM1010.19 733.928L1011.53 735.262L1010.19 733.928ZM1210.29 733.928V737.93H1211.62L1210.29 733.928ZM1008.86 735.262L1010.19 736.596L1008.86 735.262ZM920.814 736.596L922.148 737.93L920.814 736.596ZM1007.52 736.596L1008.86 737.93L1007.52 736.596ZM919.925 738.819L920.37 739.708L919.925 738.819ZM1006.19 739.264L1007.52 740.598L1006.19 739.264ZM918.146 740.598L919.48 741.932L918.146 740.598ZM1004.86 740.598L1006.19 741.932L1004.86 740.598ZM916.812 743.266L918.146 744.6L916.812 743.266ZM1003.52 743.266L1004.86 744.6L1003.52 743.266ZM915.479 744.6L916.812 745.934L915.479 744.6ZM1002.19 744.6L1003.52 745.934L1002.19 744.6ZM1000.85 745.934L1002.19 747.268L1000.85 745.934ZM914.145 747.268L915.479 748.602L914.145 747.268ZM913.255 749.491L913.7 750.38L913.255 749.491ZM999.52 748.602L1000.85 749.936L999.52 748.602ZM998.186 749.936L999.52 751.27L998.186 749.936ZM911.477 751.27L912.811 752.604L911.477 751.27ZM1208.96 751.27V755.271H1210.29L1208.96 751.27ZM996.852 752.604L998.186 753.938L996.852 752.604ZM910.143 753.938L911.477 755.271L910.143 753.938ZM995.518 753.938L996.852 755.271L995.518 753.938ZM908.809 755.271L910.143 756.605L908.809 755.271ZM994.184 755.271L995.518 756.605L994.184 755.271ZM907.475 757.939L908.809 759.273L907.475 757.939ZM992.85 757.939L994.184 759.273L992.85 757.939ZM906.585 760.163L907.03 761.052L906.585 760.163ZM991.516 759.273L992.85 760.607L991.516 759.273ZM904.807 761.941L906.141 763.275L904.807 761.941ZM990.182 761.941L991.516 763.275L990.182 761.941ZM988.848 763.275L990.182 764.609L988.848 763.275ZM903.473 764.609L904.807 765.943L903.473 764.609ZM987.514 764.609L988.848 765.943L987.514 764.609Z" fill="#9E9E9E"/>
<path d="M1162.27 764.609V821.971C1162.27 828.819 1160.21 839.878 1164.59 845.678C1168.87 851.346 1177.39 849.984 1183.61 849.984H1230.3C1237.15 849.972 1244.83 849.915 1247.06 841.96C1253.07 820.515 1217.23 822.482 1208.43 808.63C1201.65 797.962 1208.71 776.671 1208.96 764.609H1162.27Z" fill="#ADADAD"/>
<path d="M902.139 765.943L903.473 767.277L902.139 765.943ZM986.18 767.277L987.514 768.611L986.18 767.277ZM900.805 768.611L902.139 769.945L900.805 768.611ZM984.846 768.611L986.18 769.945L984.846 768.611ZM899.915 770.835L900.36 771.724L899.915 770.835ZM983.512 771.279L984.846 772.613L983.512 771.279ZM898.137 772.613L899.471 773.947L898.137 772.613ZM982.178 772.613L983.512 773.947L982.178 772.613ZM980.844 773.947L982.178 775.281L980.844 773.947ZM896.803 775.281L898.137 776.615L896.803 775.281ZM895.469 776.615L896.803 777.949L895.469 776.615ZM979.51 776.615L980.844 777.949L979.51 776.615ZM978.176 777.949L979.51 779.283L978.176 777.949ZM894.135 779.283L895.469 780.617L894.135 779.283ZM893.245 781.507L893.691 782.395L893.245 781.507ZM976.842 780.617L978.176 781.951L976.842 780.617ZM975.508 781.951L976.842 783.285L975.508 781.951ZM891.467 783.285L892.801 784.619L891.467 783.285ZM974.174 783.285L975.508 784.619L974.174 783.285ZM890.133 785.953L891.467 787.287L890.133 785.953ZM972.84 785.953L974.174 787.287L972.84 785.953ZM888.799 787.287L890.133 788.621L888.799 787.287ZM971.506 787.287L972.84 788.621L971.506 787.287ZM887.465 789.955L888.799 791.289L887.465 789.955ZM970.172 789.955L971.506 791.289L970.172 789.955ZM886.575 792.179L887.021 793.067L886.575 792.179ZM968.838 791.289L970.172 792.623L968.838 791.289ZM967.504 792.623L968.838 793.957L967.504 792.623ZM884.797 793.957L886.131 795.291L884.797 793.957ZM966.17 795.291L967.504 796.625L966.17 795.291Z" fill="#9E9E9E"/>
<path d="M820.766 849.984V801.961C804.879 802.093 787.1 808.103 771.408 805.764C758.777 803.882 752.682 793.782 738.059 797.336C726.14 800.233 721.49 814.675 710.045 817.545C698.823 820.358 658.731 820.25 673.118 844.396C678.919 854.133 700.399 849.984 710.045 849.984H820.766Z" fill="#ADADAD"/>
<path d="M870.123 796.625V797.959H878.127L870.123 796.625ZM964.836 796.625L966.17 797.959L964.836 796.625ZM855.449 797.959V799.293H863.453L855.449 797.959ZM840.775 799.293V800.627H848.779L840.775 799.293ZM963.502 799.293L964.836 800.627L963.502 799.293ZM826.102 800.627V801.961H834.105L826.102 800.627ZM962.168 800.627L963.502 801.961L962.168 800.627ZM960.834 801.961L962.168 803.295L960.834 801.961ZM959.5 804.629L960.834 805.963L959.5 804.629ZM958.166 805.963L959.5 807.297L958.166 805.963ZM956.832 808.631L958.166 809.965L956.832 808.631ZM955.498 809.965L956.832 811.299L955.498 809.965ZM954.164 811.299L955.498 812.633L954.164 811.299ZM952.83 813.967L954.164 815.301L952.83 813.967ZM951.496 815.301L952.83 816.635L951.496 815.301ZM950.162 817.969L951.496 819.303L950.162 817.969ZM948.828 819.303L950.162 820.637L948.828 819.303ZM947.494 820.637L948.828 821.971L947.494 820.637ZM946.16 823.305L947.494 824.639L946.16 823.305ZM944.826 824.639L946.16 825.973L944.826 824.639ZM943.492 827.307L944.826 828.641L943.492 827.307ZM942.158 828.641L943.492 829.975L942.158 828.641ZM940.824 829.975L942.158 831.309L940.824 829.975ZM939.49 832.643L940.824 833.977L939.49 832.643ZM938.156 833.977L939.49 835.311L938.156 833.977ZM936.822 835.311L938.156 836.645L936.822 835.311ZM935.488 836.645L936.822 837.979L935.488 836.645ZM934.154 837.979L935.488 839.312L934.154 837.979ZM932.82 839.312L934.154 840.646L932.82 839.312ZM931.486 840.646L932.82 841.98L931.486 840.646ZM929.708 842.425L930.597 842.87L929.708 842.425ZM927.484 843.314L928.818 844.648L927.484 843.314ZM924.816 844.648L926.15 845.982L924.816 844.648ZM922.148 845.982L923.482 847.316L922.148 845.982ZM919.036 847.761L919.925 848.206L919.036 847.761ZM912.811 848.65V849.984H916.812L912.811 848.65Z" fill="#9E9E9E"/>
</svg>
