<svg width="180" height="180" viewBox="0 0 180 180" fill="none" xmlns="http://www.w3.org/2000/svg">
<path fill-rule="evenodd" clip-rule="evenodd" d="M86.7513 44.0051C99.9825 44.1083 112.688 46.864 123.445 54.5677C136.674 64.0409 150.84 75.1024 152.742 91.2617C154.784 108.611 146.006 125.827 133.236 137.747C120.854 149.305 103.658 153.888 86.7513 152.86C70.8575 151.892 56.2769 144.226 45.5993 132.414C35.4586 121.195 30.324 106.366 31.0715 91.2617C31.7835 76.8747 38.4981 63.3119 49.4805 53.9909C59.6745 45.339 73.381 43.9008 86.7513 44.0051Z" fill="#DEEAF6"/>
<path d="M52.9198 32.5434L7.99894 56.1548C4.14732 58.1793 2.6648 62.9416 4.68822 66.7912L41.7841 137.367C43.8076 141.216 48.5703 142.695 52.4219 140.67L102.71 114.237C106.563 112.212 108.045 107.452 106.022 103.602L71.6197 38.1522L52.9198 32.5434Z" fill="#BFDBF5"/>
<path d="M52.5377 33.7827L56.0027 40.3749C57.6021 43.4179 61.3678 44.5871 64.4118 42.9871L71.209 39.4143C71.9777 39.0103 71.8693 37.8783 71.0392 37.6279L53.6766 32.4032C52.8527 32.1547 52.138 33.0222 52.5377 33.7827Z" fill="#79AFE0"/>
<path d="M72.8667 65.6073L29.309 88.5021C28.3691 88.9961 27.2073 88.6349 26.7139 87.6961L25.6413 85.6555C25.1478 84.7166 25.5091 83.5549 26.4489 83.0609L70.0066 60.166C70.9465 59.672 72.1082 60.0333 72.6017 60.9721L73.6743 63.0127C74.1678 63.9515 73.8065 65.1133 72.8667 65.6073Z" fill="white"/>
<path d="M79.3007 77.8487L35.743 100.744C34.8031 101.238 33.6419 100.877 33.1484 99.9386L32.0753 97.8969C31.5819 96.9581 31.9436 95.7974 32.8835 95.3034L76.4412 72.4085C77.381 71.9145 78.5428 72.2757 79.0357 73.2135L80.1089 75.2552C80.6018 76.193 80.2405 77.3547 79.3007 77.8487Z" fill="white"/>
<path d="M85.7361 90.0914L42.1783 112.986C41.2385 113.48 40.0767 113.119 39.5833 112.18L38.5107 110.14C38.0172 109.201 38.3785 108.039 39.3183 107.545L82.876 84.6501C83.8159 84.1561 84.9776 84.5174 85.4711 85.4562L86.5437 87.4968C87.0366 88.4346 86.6759 89.5974 85.7361 90.0914Z" fill="white"/>
<path d="M91.8978 102.476L83.595 106.84C82.5045 107.414 81.1567 106.994 80.584 105.905L79.7975 104.409C79.2248 103.319 79.6445 101.972 80.735 101.399L89.0378 97.035C90.1283 96.4618 91.4756 96.8799 92.0482 97.9694L92.8348 99.4657C93.4074 100.555 92.9883 101.903 91.8978 102.476Z" fill="white"/>
<path d="M44.9236 54.693L43.1505 55.6249C42.8543 55.7806 42.4868 55.6664 42.3317 55.3712L41.3997 53.5981C41.244 53.3019 40.8781 53.1881 40.5819 53.3438L37.5143 54.9562C37.2181 55.1119 37.1049 55.4788 37.2601 55.774L38.192 57.5471C38.3477 57.8433 38.2329 58.2097 37.9378 58.3648L36.1636 59.2974C35.8674 59.4531 35.7526 59.8195 35.9083 60.1157L37.5196 63.1812C37.6753 63.4774 38.0422 63.5906 38.3384 63.4349L40.1125 62.5024C40.4077 62.3473 40.7746 62.4605 40.9303 62.7567L41.8618 64.5288C42.0175 64.825 42.3833 64.9387 42.6795 64.7831L45.7471 63.1707C46.0443 63.0144 46.1571 62.6491 46.0014 62.3529L45.0699 60.5808C44.9143 60.2846 45.029 59.9182 45.3252 59.7625L47.0983 58.8305C47.3956 58.6743 47.5093 58.3084 47.3537 58.0122L45.7424 54.9467C45.5867 54.6505 45.2208 54.5367 44.9236 54.693Z" fill="#FFD553"/>
<path d="M143.001 122.992L115.445 112.887C110.781 111.176 108.384 106.014 110.092 101.357L127.683 53.3896C129.391 48.7326 134.556 46.3437 139.221 48.0543L166.776 58.1593C171.441 59.8702 173.838 65.0323 172.13 69.6892L154.54 117.657C152.832 122.314 147.666 124.703 143.001 122.992Z" fill="#FFD553"/>
<path d="M158.705 106.299L114.258 89.9992L124.915 60.9368L169.363 77.2364L158.705 106.299Z" fill="white"/>
<path d="M168.516 58.7973L137.481 47.4163C136.496 47.0549 135.988 45.9613 136.349 44.9776L139.794 35.584C140.155 34.5993 141.247 34.0978 142.233 34.4592L173.267 45.8401C174.253 46.2015 174.762 47.2905 174.401 48.2751L170.956 57.6687C170.596 58.6525 169.501 59.1587 168.516 58.7973Z" fill="#79AFE0"/>
<path d="M151.812 83.3338L146.578 81.4142L148.495 76.1843L141.515 73.6243L139.597 78.8542L134.363 76.935L131.807 83.9054L137.041 85.8247L135.124 91.0509L142.105 93.6108L144.021 88.3846L149.256 90.3043L151.812 83.3338Z" fill="#FFD553"/>
<circle cx="105" cy="34" r="5" fill="#79AFE0"/>
<circle cx="51.5" cy="150.5" r="2.5" fill="#79AFE0"/>
<circle cx="146.5" cy="134.5" r="4.5" fill="#DEEAF6"/>
</svg>
