<svg
    xmlns="http://www.w3.org/2000/svg"
    viewBox="0 0 142 61"
    id="vector">
    <defs>
        <clipPath id="clip_path">
            <path d="M 0 0 L 141.335 0 L 141.335 61 L 0 61 Z"/>
        </clipPath>
        <clipPath id="clip_path_1">
            <path d="M 0 0 L 141.335 0 L 141.335 61 L 0 61 Z"/>
        </clipPath>
        <clipPath id="clip_path_2">
            <path d="M 0 0 L 141.335 0 L 141.335 61 L 0 61 Z"/>
        </clipPath>
    </defs>
    <g id="group">
        <path
            id="path"
            clip-path="url(#clip_path)"
            d="M 107.705 42.489 L 107.705 41.697 L 106.915 41.697 C 103.823 41.697 101.208 40.615 99.025 38.432 C 96.842 36.249 95.759 33.634 95.759 30.542 C 95.759 27.451 96.842 24.836 99.025 22.653 C 101.132 20.546 103.642 19.464 106.593 19.391 L 133.514 46.076 L 133.745 46.306 L 134.07 46.306 L 138.337 46.306 L 140.234 46.306 L 138.899 44.958 L 109.246 15.014 L 109.014 14.779 L 108.684 14.779 L 106.915 14.779 C 102.578 14.779 98.848 16.323 95.766 19.392 L 95.765 19.393 L 95.764 19.394 C 92.696 22.476 91.151 26.206 91.151 30.542 C 91.151 34.879 92.696 38.609 95.764 41.691 L 95.765 41.692 L 95.766 41.694 C 98.848 44.762 102.578 46.306 106.915 46.306 L 107.705 46.306 L 107.705 45.514 L 107.705 42.489 Z"
            fill="#15518a"
            stroke="#15518a"
            stroke-width="1.58219"/>
        <path
            id="path_1"
            clip-path="url(#clip_path_1)"
            d="M 29.23 33.183 L 28.754 33.183 L 28.604 33.635 C 27.785 36.104 26.424 38.018 24.525 39.407 C 22.579 40.83 20.41 41.577 18.003 41.655 C 14.948 41.576 12.35 40.464 10.177 38.305 C 8.016 36.13 6.897 33.528 6.807 30.468 C 6.808 29.455 6.99 28.424 7.358 27.375 L 32.457 27.355 L 33.309 27.355 L 33.095 26.53 C 32.226 23.193 30.394 20.425 27.618 18.24 C 24.809 16.023 21.597 14.912 18.006 14.912 C 13.714 14.912 10.024 16.432 6.971 19.458 L 6.969 19.46 L 6.967 19.462 C 3.942 22.514 2.421 26.198 2.421 30.477 C 2.421 34.769 3.941 38.459 6.967 41.512 L 6.969 41.514 L 6.971 41.516 C 10.024 44.542 13.714 46.062 18.006 46.062 C 21.543 46.062 24.714 44.978 27.496 42.816 C 30.261 40.687 32.154 37.741 33.191 34.019 L 33.423 33.183 L 32.555 33.183 L 29.23 33.183 Z M 10.44 22.267 L 10.441 22.266 L 10.442 22.265 C 12.533 20.286 15.042 19.299 18.006 19.299 C 20.378 19.299 22.5 19.969 24.391 21.313 C 25.272 21.951 25.949 22.557 26.442 23.127 L 9.584 23.127 C 9.816 22.873 10.1 22.587 10.44 22.267 Z"
            fill="#15518a"
            stroke="#15518a"
            stroke-width="1.3185"/>
        <path
            id="path_2"
            clip-path="url(#clip_path_2)"
            d="M 59.984 45.314 L 59.984 45.842 L 60.511 45.842 L 64.71 45.842 L 65.237 45.842 L 65.237 45.314 L 65.237 28.52 L 65.237 28.52 L 65.237 28.519 L 65.237 28.518 L 65.237 28.518 L 65.237 28.517 L 65.237 28.516 L 65.237 28.516 L 65.237 28.515 L 65.237 28.514 L 65.237 28.514 L 65.237 28.513 L 65.237 28.512 L 65.237 28.512 L 65.237 28.511 L 65.237 28.51 L 65.237 28.51 L 65.237 28.509 L 65.237 28.508 L 65.237 28.508 L 65.237 28.507 L 65.237 28.506 L 65.237 28.506 L 65.237 28.505 L 65.237 28.504 L 65.237 28.504 L 65.237 28.503 L 65.237 28.503 L 65.237 28.502 L 65.237 28.501 L 65.237 28.501 L 65.237 28.5 L 65.237 28.5 L 65.237 28.499 L 65.237 28.498 L 65.237 28.498 L 65.237 28.497 L 65.237 28.497 L 65.237 28.496 L 65.237 28.495 L 65.237 28.495 L 65.237 28.494 L 65.237 28.493 L 65.237 28.493 L 65.237 28.492 L 65.237 28.492 L 65.237 28.491 L 65.237 28.491 L 65.237 28.49 L 65.237 28.49 L 65.237 28.489 L 65.237 28.488 L 65.237 28.488 L 65.237 28.487 L 65.237 28.487 L 65.237 28.486 L 65.237 28.486 L 65.237 28.485 L 65.237 28.485 L 65.237 28.484 L 65.237 28.483 L 65.237 28.483 L 65.237 28.482 L 65.237 28.482 L 65.237 28.481 L 65.237 28.481 L 65.237 28.48 L 65.237 28.48 L 65.237 28.479 L 65.237 28.479 L 65.237 28.478 L 65.237 28.478 L 65.237 28.477 L 65.237 28.476 L 65.237 28.476 L 65.237 28.476 L 65.237 28.475 L 65.237 28.475 L 65.237 28.474 L 65.237 28.473 L 65.237 28.473 L 65.237 28.472 L 65.237 28.472 L 65.237 28.472 L 65.237 28.471 L 65.237 28.47 L 65.237 28.47 L 65.237 28.469 L 65.237 28.469 L 65.237 28.469 L 65.237 28.468 L 65.237 28.468 L 65.237 28.467 L 65.237 28.467 L 65.237 28.466 L 65.237 28.466 L 65.237 28.465 L 65.237 28.465 L 65.237 28.464 L 65.237 28.464 L 65.237 28.463 L 65.237 28.463 L 65.237 28.462 L 65.237 28.462 L 65.237 28.462 L 65.237 28.461 L 65.237 28.461 L 65.237 28.46 L 65.237 28.46 L 65.237 28.459 L 65.237 28.459 L 65.237 28.458 L 65.237 28.458 L 65.237 28.457 L 65.237 28.457 L 65.237 28.457 L 65.237 28.456 L 65.237 28.456 L 65.237 28.455 L 65.237 28.455 L 65.237 28.454 L 65.237 28.454 L 65.237 28.454 L 65.237 28.453 L 65.237 28.453 L 65.237 28.452 L 65.237 28.452 L 65.237 28.451 L 65.237 28.451 L 65.237 28.451 L 65.237 28.45 L 65.237 28.45 L 65.237 28.449 L 65.237 28.449 L 65.237 28.449 L 65.237 28.448 L 65.237 28.448 L 65.237 28.447 L 65.237 28.447 L 65.237 28.447 L 65.237 28.446 L 65.237 28.446 L 65.237 28.445 L 65.237 28.445 L 65.237 28.445 L 65.237 28.444 L 65.237 28.444 L 65.237 28.444 L 65.237 28.443 L 65.237 28.443 L 65.237 28.442 L 65.237 28.442 L 65.237 28.442 L 65.237 28.441 L 65.237 28.441 L 65.237 28.441 L 65.237 28.44 L 65.237 28.44 L 65.237 28.44 L 65.237 28.439 L 65.237 28.439 L 65.237 28.438 L 65.237 28.438 L 65.237 28.438 L 65.237 28.437 L 65.237 28.437 L 65.237 28.437 L 65.237 28.436 L 65.237 28.436 L 65.237 28.435 L 65.237 28.435 L 65.237 28.435 L 65.237 28.434 L 65.237 28.434 L 65.237 28.434 L 65.237 28.434 L 65.237 28.433 L 65.237 28.433 L 65.237 28.433 L 65.237 28.432 L 65.237 28.432 L 65.237 28.431 L 65.237 28.431 L 65.237 28.431 L 65.237 28.431 L 65.237 28.43 L 65.237 28.43 L 65.237 28.43 L 65.237 28.429 L 65.237 28.429 L 65.237 28.428 L 65.237 28.428 L 65.237 28.428 L 65.237 28.428 L 65.237 28.427 L 65.237 28.427 L 65.237 28.427 L 65.237 28.426 L 65.237 28.426 L 65.237 28.426 L 65.237 28.425 L 65.237 28.425 L 65.237 28.425 L 65.237 28.424 L 65.237 28.424 L 65.237 28.424 L 65.237 28.424 L 65.237 28.423 L 65.237 28.423 L 65.237 28.423 L 65.237 28.422 L 65.237 28.422 L 65.237 28.422 L 65.237 28.421 L 65.237 28.421 L 65.237 28.421 L 65.237 28.42 L 65.237 28.42 L 65.237 28.42 L 65.237 28.42 L 65.237 28.419 L 65.237 28.419 L 65.237 28.419 L 65.237 28.419 L 65.237 28.418 L 65.237 28.418 L 65.237 28.418 L 65.237 28.417 L 65.237 28.417 L 65.237 28.417 L 65.237 28.417 L 65.237 28.416 L 65.237 28.416 L 65.237 28.416 L 65.237 28.415 L 65.237 28.415 L 65.237 28.415 L 65.237 28.415 L 65.237 28.414 L 65.237 28.414 L 65.237 28.414 L 65.237 28.413 L 65.237 28.413 L 65.237 28.413 L 65.237 28.413 L 65.237 28.412 L 65.237 28.412 L 65.237 28.412 L 65.237 28.412 L 65.237 28.411 L 65.237 28.411 L 65.237 28.411 L 65.237 28.411 L 65.237 28.41 L 65.237 28.41 L 65.237 28.41 L 65.237 28.41 L 65.237 28.409 L 65.237 28.409 L 65.237 28.409 L 65.237 28.409 L 65.237 28.408 L 65.237 28.408 L 65.237 28.408 L 65.237 28.407 L 65.237 28.407 L 65.237 28.407 L 65.237 28.407 L 65.237 28.406 L 65.237 28.406 L 65.237 28.406 L 65.237 28.406 L 65.237 28.405 L 65.237 28.405 L 65.237 28.405 L 65.237 28.405 L 65.237 28.404 L 65.237 28.404 L 65.237 28.404 L 65.237 28.404 L 65.237 28.403 L 65.237 28.403 L 65.237 28.403 L 65.237 28.403 L 65.237 28.402 L 65.237 28.402 L 65.237 28.402 L 65.237 28.402 L 65.237 28.402 L 65.237 28.401 L 65.237 28.401 L 65.237 28.401 L 65.237 28.4 L 65.237 28.4 L 65.237 28.4 L 65.237 28.4 L 65.237 28.399 L 65.237 28.399 L 65.237 28.399 L 65.237 28.399 L 65.237 28.399 L 65.237 28.398 L 65.237 28.398 L 65.237 28.398 L 65.237 28.398 L 65.237 28.397 L 65.237 28.397 L 65.237 28.397 L 65.237 28.397 L 65.237 28.396 L 65.237 28.396 L 65.237 28.396 L 65.237 28.396 L 65.237 28.396 L 65.237 28.395 L 65.237 28.395 L 65.237 28.395 L 65.237 28.395 L 65.237 28.394 L 65.237 28.394 L 65.237 28.394 L 65.237 28.394 L 65.237 28.393 L 65.237 28.393 L 65.237 28.393 L 65.237 28.393 L 65.237 28.392 L 65.237 28.392 L 65.237 28.392 L 65.237 28.392 L 65.237 28.392 L 65.237 28.391 L 65.237 28.391 L 65.237 28.391 L 65.237 28.391 L 65.237 28.39 L 65.237 28.39 L 65.237 28.39 L 65.237 28.39 L 65.237 28.389 L 65.237 28.389 L 65.237 28.389 L 65.237 28.389 L 65.237 28.389 L 65.237 28.388 L 65.237 28.388 L 65.237 28.388 L 65.237 28.388 L 65.237 28.388 L 65.237 28.387 L 65.237 28.387 L 65.237 28.387 L 65.237 28.386 L 65.237 28.386 L 65.237 28.386 L 65.237 28.386 L 65.237 28.386 L 65.237 28.385 L 65.237 28.385 L 65.237 28.385 L 65.237 28.385 L 65.237 28.384 L 65.237 28.384 L 65.237 28.384 L 65.237 28.384 L 65.237 28.383 L 65.237 28.383 L 65.237 28.383 L 65.237 28.383 L 65.237 28.383 L 65.237 28.382 L 65.237 28.382 L 65.237 28.382 L 65.237 28.382 L 65.237 28.381 L 65.237 28.381 L 65.237 28.381 L 65.237 28.381 L 65.237 28.38 L 65.237 28.38 L 65.237 28.38 L 65.237 28.38 L 65.237 28.379 L 65.237 28.379 L 65.237 28.379 L 65.237 28.379 L 65.237 28.379 L 65.237 28.378 L 65.237 28.378 L 65.237 28.378 L 65.237 28.378 L 65.237 28.377 L 65.237 28.377 L 65.237 28.377 L 65.237 28.377 L 65.237 28.376 L 65.237 28.376 L 65.237 28.376 L 65.237 28.376 L 65.237 28.375 L 65.237 28.375 L 65.237 28.375 L 65.237 28.375 L 65.237 28.375 L 65.237 28.374 L 65.237 28.374 L 65.237 28.374 L 65.237 28.373 L 65.237 28.373 L 65.237 28.373 L 65.237 28.373 L 65.237 28.372 L 65.237 28.372 L 65.237 28.372 L 65.237 28.372 L 65.237 28.372 L 65.237 28.371 L 65.237 28.371 L 65.237 28.371 L 65.237 28.37 L 65.237 28.37 L 65.237 28.37 L 65.237 28.37 L 65.237 28.369 L 65.237 28.369 L 65.237 28.369 L 65.237 28.369 L 65.237 28.368 L 65.237 28.368 L 65.237 28.368 L 65.237 28.368 L 65.237 28.367 L 65.237 28.367 L 65.237 28.367 L 65.237 28.367 L 65.237 28.366 L 65.237 28.366 L 65.237 28.366 L 65.237 28.365 L 65.237 28.365 L 65.237 28.365 L 65.237 28.365 L 65.237 28.364 L 65.237 28.364 L 65.237 28.364 L 65.237 28.364 L 65.237 28.363 L 65.237 28.363 L 65.237 28.363 L 65.237 28.362 L 65.237 28.362 L 65.237 28.362 L 65.237 28.362 L 65.237 28.361 L 65.237 28.361 L 65.237 28.361 L 65.237 28.361 L 65.237 28.36 L 65.237 28.36 L 65.237 28.36 L 65.237 28.359 L 65.237 28.359 L 65.237 28.359 L 65.237 28.358 L 65.237 28.358 L 65.237 28.358 L 65.237 28.358 L 65.237 28.357 L 65.237 28.357 L 65.237 28.357 L 65.237 28.356 L 65.237 28.356 L 65.237 28.356 L 65.237 28.355 L 65.237 28.355 L 65.237 28.355 L 65.237 28.355 L 65.237 28.354 L 65.237 28.354 L 65.237 28.354 L 65.237 28.353 L 65.237 28.353 L 65.237 28.353 L 65.237 28.353 L 65.237 28.352 C 65.324 25.899 66.166 24.005 67.558 22.721 C 68.955 21.433 70.961 20.71 73.462 20.71 C 76.02 20.71 77.987 21.461 79.314 22.775 C 80.641 24.088 81.39 26.025 81.39 28.52 L 81.39 45.314 L 81.39 45.842 L 81.918 45.842 L 86.175 45.842 L 86.703 45.842 L 86.703 45.314 L 86.703 28.225 C 86.703 24.098 85.471 20.783 83.096 18.501 C 80.724 16.222 77.281 15.043 72.989 15.043 C 70.121 15.043 68.016 15.715 66.412 16.677 C 64.826 17.629 63.762 18.846 62.95 19.896 C 62.835 20.018 62.736 20.169 62.655 20.301 C 62.576 20.169 62.49 20.03 62.411 19.925 L 62.41 19.924 L 62.41 19.923 C 61.257 18.406 60.001 17.171 58.3 16.325 C 56.601 15.48 54.504 15.043 51.7 15.043 C 50.141 15.043 48.526 15.287 47.115 15.683 C 45.729 16.073 44.489 16.624 43.697 17.276 C 43.5 17.409 43.316 17.566 43.145 17.728 L 43.179 17.139 L 43.18 17.123 L 43.18 17.108 L 43.18 15.807 L 43.18 15.279 L 42.653 15.279 L 38.159 15.279 L 37.631 15.279 L 37.631 15.807 L 37.631 45.374 L 37.631 45.901 L 38.159 45.901 L 42.653 45.901 L 43.18 45.901 L 43.18 45.374 L 43.18 28.343 C 43.18 25.884 44.097 23.994 45.597 22.712 C 47.107 21.422 49.253 20.71 51.759 20.71 C 56.704 20.71 59.984 23.994 59.984 28.225 L 59.984 45.314 Z"
            fill="#15518a"
            stroke="#15518a"
            stroke-width="1.0548"/>
    </g>
</svg>
